<?xml version="1.0" encoding="utf-8"?>

<!DOCTYPE svg PUBLIC "-//W3C//DTD SVG 1.1//EN" "http://www.w3.org/Graphics/SVG/1.1/DTD/svg11.dtd">
<!-- Uploaded to: SVG Repo, www.svgrepo.com, Generator: SVG Repo Mixer Tools -->
<svg version="1.1" id="Слой_1" xmlns="http://www.w3.org/2000/svg" xmlns:xlink="http://www.w3.org/1999/xlink" 
	 width="800px" height="800px" viewBox="0 0 64 64" enable-background="new 0 0 64 64" xml:space="preserve">
<g>
	<path fill="#4572ED" d="M33,63.995H1c-0.552,0-1-0.447-1-1V8.005c0-0.552,0.448-1,1-1h3c0.552,0,1,0.448,1,1s-0.448,1-1,1H2v52.99
		h30.778l14.799-6.906c0.268-0.125,0.578-0.125,0.846,0L62,61.425V8.642L48,2.109L33.423,8.912C33.29,8.973,33.146,9.005,33,9.005
		h-4c-0.552,0-1-0.448-1-1s0.448-1,1-1h3.778l14.799-6.906c0.268-0.125,0.578-0.125,0.846,0l15,7C63.775,7.264,64,7.617,64,8.005
		v54.99c0,0.342-0.175,0.66-0.463,0.844c-0.288,0.183-0.649,0.207-0.96,0.062L48,57.099l-14.577,6.803
		C33.29,63.963,33.146,63.995,33,63.995z"/>
</g>
<g>
	<path fill="#4572ED" d="M48,13.995c-0.553,0-1-0.448-1-1V1.005c0-0.552,0.447-1,1-1s1,0.448,1,1v11.989
		C49,13.547,48.553,13.995,48,13.995z"/>
</g>
<g>
	<path fill="#4572ED" d="M48,56.995c-0.553,0-1-0.447-1-1v-33c0-0.552,0.447-1,1-1s1,0.448,1,1v33
		C49,56.548,48.553,56.995,48,56.995z"/>
</g>
<g>
	<path fill="#4572ED" d="M33,46.995c-0.553,0-1-0.447-1-1V8.005c0-0.552,0.447-1,1-1s1,0.448,1,1v37.99
		C34,46.548,33.553,46.995,33,46.995z"/>
</g>
<g>
	<path fill="#4572ED" d="M19.263,39.826c-2.258,0-4.095-1.837-4.095-4.095s1.837-4.095,4.095-4.095s4.095,1.837,4.095,4.095
		S21.521,39.826,19.263,39.826z M19.263,33.637c-1.155,0-2.095,0.939-2.095,2.095s0.939,2.095,2.095,2.095s2.095-0.939,2.095-2.095
		S20.418,33.637,19.263,33.637z"/>
</g>
<g>
	<path fill="#4572ED" d="M16.495,19.995C11.259,19.995,7,15.735,7,10.5s4.259-9.495,9.495-9.495s9.495,4.259,9.495,9.495
		S21.73,19.995,16.495,19.995z M16.495,3.005C12.362,3.005,9,6.368,9,10.5s3.362,7.495,7.495,7.495s7.495-3.362,7.495-7.495
		S20.627,3.005,16.495,3.005z"/>
</g>
<g>
	<path fill="#4572ED" d="M16.495,13.5c-1.654,0-3-1.346-3-3s1.346-3,3-3s3,1.346,3,3S18.149,13.5,16.495,13.5z M16.495,9.5
		c-0.551,0-1,0.449-1,1s0.449,1,1,1s1-0.449,1-1S17.046,9.5,16.495,9.5z"/>
</g>
<g>
	<path fill="#4572ED" d="M19.263,49.698c-0.794,0-1.522-0.364-1.998-1c-3.074-4.117-6.739-9.708-6.739-12.967
		c0-4.817,3.919-8.737,8.737-8.737S28,30.914,28,35.731c0,3.259-3.665,8.85-6.739,12.967C20.786,49.334,20.058,49.698,19.263,49.698
		z M19.263,28.995c-3.715,0-6.737,3.022-6.737,6.737c0,2.053,2.371,6.452,6.342,11.77c0.128,0.172,0.303,0.197,0.395,0.197
		s0.267-0.025,0.395-0.197C23.629,42.184,26,37.784,26,35.731C26,32.017,22.978,28.995,19.263,28.995z"/>
</g>
<g>
	<line fill="#FFFFFF" x1="18" y1="9.005" x2="20" y2="7.005"/>
	<path fill="#4572ED" d="M18,10.005c-0.256,0-0.512-0.098-0.707-0.293c-0.391-0.391-0.391-1.023,0-1.414l2-2
		c0.391-0.391,1.023-0.391,1.414,0s0.391,1.023,0,1.414l-2,2C18.512,9.908,18.256,10.005,18,10.005z"/>
</g>
<g>
	<line fill="#FFFFFF" x1="15" y1="12.005" x2="13" y2="14.005"/>
	<path fill="#4572ED" d="M13,15.005c-0.256,0-0.512-0.098-0.707-0.293c-0.391-0.391-0.391-1.023,0-1.414l2-2
		c0.391-0.391,1.023-0.391,1.414,0s0.391,1.023,0,1.414l-2,2C13.512,14.908,13.256,15.005,13,15.005z"/>
</g>
<g>
	<path fill="#2AB27B" d="M29.914,51.805c-0.032,0-0.064-0.002-0.097-0.005c-2.328-0.225-4.076-0.836-4.15-0.862
		c-0.52-0.184-0.792-0.754-0.609-1.274c0.184-0.521,0.754-0.792,1.275-0.611c0.016,0.006,1.605,0.558,3.677,0.758
		c0.55,0.053,0.952,0.542,0.899,1.092C30.858,51.418,30.423,51.805,29.914,51.805z M33.896,51.66c-0.469,0-0.888-0.331-0.98-0.809
		c-0.105-0.542,0.248-1.067,0.79-1.173c0.679-0.133,1.311-0.332,1.878-0.593c0.553-0.253,1.062-0.513,1.513-0.771
		c0.477-0.273,1.09-0.109,1.364,0.37c0.275,0.479,0.109,1.09-0.37,1.364c-0.503,0.289-1.065,0.576-1.673,0.855
		c-0.711,0.326-1.495,0.574-2.329,0.737C34.023,51.654,33.959,51.66,33.896,51.66z M40.635,47.636c-0.206,0-0.415-0.063-0.594-0.196
		c-0.444-0.328-0.538-0.954-0.209-1.398c0.633-0.855,0.996-1.837,1.177-3.18c0.074-0.547,0.573-0.953,1.127-0.891
		c0.547,0.073,0.936,0.542,0.864,1.088c-0.234,1.742-0.728,3.046-1.561,4.172C41.243,47.495,40.941,47.636,40.635,47.636z
		 M41.97,39.949c-0.473,0-0.893-0.336-0.982-0.817c-0.253-1.367-0.79-2.429-1.31-3.456c-0.249-0.493-0.052-1.095,0.441-1.344
		c0.492-0.25,1.095-0.052,1.344,0.441c0.556,1.099,1.186,2.345,1.491,3.993c0.101,0.543-0.258,1.065-0.801,1.166
		C42.092,39.944,42.03,39.949,41.97,39.949z M39.118,32.517c-0.462,0-0.876-0.321-0.977-0.791c-0.183-0.853-0.271-1.731-0.271-2.687
		c0-0.507,0.025-1.042,0.075-1.59c0.051-0.55,0.526-0.945,1.087-0.905c0.55,0.05,0.955,0.537,0.905,1.087
		c-0.045,0.488-0.067,0.962-0.067,1.409c0,0.813,0.074,1.555,0.227,2.269c0.116,0.54-0.229,1.071-0.769,1.187
		C39.258,32.51,39.188,32.517,39.118,32.517z M39.747,24.629c-0.106,0-0.215-0.018-0.322-0.054
		c-0.522-0.178-0.803-0.746-0.625-1.269c0.518-1.521,1.228-2.805,2.112-3.818c0.363-0.417,0.995-0.458,1.41-0.096
		c0.416,0.363,0.459,0.995,0.096,1.411c-0.712,0.815-1.292,1.874-1.724,3.146C40.553,24.367,40.164,24.629,39.747,24.629z
		 M44.993,19.046c-0.441,0-0.846-0.295-0.965-0.742c-0.143-0.533,0.174-1.082,0.707-1.224c0.709-0.19,1.47-0.286,2.26-0.286
		c0.002,0,0.004,0,0.007,0c0.677,0,1.396,0.071,2.141,0.21c0.542,0.102,0.9,0.625,0.798,1.167c-0.101,0.542-0.615,0.903-1.167,0.799
		c-0.622-0.117-1.219-0.176-1.772-0.176c-0.002,0-0.004,0-0.005,0c-0.617,0-1.203,0.073-1.743,0.218
		C45.166,19.035,45.079,19.046,44.993,19.046z"/>
</g>
<g>
	<path fill="#4572ED" d="M33,63.995c-0.553,0-1-0.447-1-1v-8c0-0.553,0.447-1,1-1s1,0.447,1,1v8C34,63.548,33.553,63.995,33,63.995z
		"/>
</g>
<g>
	<path fill="#2AB27B" d="M53,21.995c-0.256,0-0.512-0.098-0.707-0.293c-0.391-0.391-0.391-1.023,0-1.414l4-4
		c0.391-0.391,1.023-0.391,1.414,0s0.391,1.023,0,1.414l-4,4C53.512,21.897,53.256,21.995,53,21.995z"/>
</g>
<g>
	<path fill="#2AB27B" d="M57,21.995c-0.256,0-0.512-0.098-0.707-0.293l-4-4c-0.391-0.391-0.391-1.023,0-1.414s1.023-0.391,1.414,0
		l4,4c0.391,0.391,0.391,1.023,0,1.414C57.512,21.897,57.256,21.995,57,21.995z"/>
</g>
</svg>