<?xml version="1.0" encoding="utf-8"?>
<!-- Uploaded to: SVG Repo, www.svgrepo.com, Generator: SVG Repo Mixer Tools -->
<svg width="800px" height="800px" viewBox="0 -86.26 470.007 470.007" xmlns="http://www.w3.org/2000/svg"><defs><style>.a{fill:#ffffff;}.b{fill:#b5886a;}.c{fill:#211715;}.d{fill:#f4b467;}.e{fill:#645d5c;}.f{fill:#957f6e;}.g{fill:#bdbdbd;}.h{fill:#3f88c9;}.i{fill:#79c6e0;}</style></defs><path class="a" d="M384.717,295.215c-1.906-19.609-3.835-39.668-.352-59.4.915-5.188,2.326-11.818,3.449-15.7H439.54c1.125,3.891,2.534,10.516,3.449,15.7,3.482,19.733,1.554,39.789-.352,59.4Z"/><path class="a" d="M424.074,131.986l0-.124c5.762-2.4,10.409-10.168,11.215-12.357.121-.367.368-1.058.587-1.879l.458-.071a5.755,5.755,0,0,0,2.673-1.205,8.663,8.663,0,0,0,2.241-2.942,13.638,13.638,0,0,0,1.391-7.231,4.547,4.547,0,0,0-.476-1.831,3.223,3.223,0,0,0-2.315-1.539,3.41,3.41,0,0,0-2.728.8s1.77-18.921-22.506-18.921-23.252,18.921-23.252,18.921a3.411,3.411,0,0,0-2.728-.8,3.223,3.223,0,0,0-2.315,1.539,4.547,4.547,0,0,0-.476,1.831,13.646,13.646,0,0,0,1.39,7.231,8.679,8.679,0,0,0,2.242,2.942,5.751,5.751,0,0,0,2.673,1.205l.871.134a23.2,23.2,0,0,0,4.421,8.629,20.222,20.222,0,0,0,6.338,5.219,17.483,17.483,0,0,1-.829,6.05c-1.389,4.186-9.124,6.908-9.547,7.052l-.211.072a41.859,41.859,0,0,0,20.488,5.737c7.2.018,16.977-2.857,20.477-5.735l-1-.413c-.223-.091-7.124-2.917-8.663-5.379-.876-1.4-.787-4.78-.814-6.433"/><path class="b" d="M429.786,132.215c-.843-.594-1.794-1.3-2.754-2.083a29.416,29.416,0,0,0,8.255-10.627c.121-.367.368-1.059.587-1.879l.458-.071a5.755,5.755,0,0,0,2.673-1.205,8.663,8.663,0,0,0,2.241-2.942q.213-.427.394-.865l.5.843c1.285,2.418,2.634,5.5,1.017,9.312a41.034,41.034,0,0,0-1.92,6.381c-.512,2.131.96,3.865,2.867,4.946.559,1.432-6.2,3.45-11.373.128C432.734,134.153,431.48,133.411,429.786,132.215Z"/><path class="b" d="M437.118,103.605a3.41,3.41,0,0,1,2.728-.8,2.772,2.772,0,0,1,.424.1c1.922-4.452.952-11.979.185-15.733-2.371-11.627-14.081-20.856-26.362-20.182-12.28-.674-23.991,8.555-26.362,20.182a33.684,33.684,0,0,0,.006,11.1s.6,2.334,1.157,4.5a3.472,3.472,0,0,1,1.994.478,71.81,71.81,0,0,0,10.694-8.55l5.7.1a28.757,28.757,0,0,0,15.811-9.042l.358,1.135c1.484,4.679,8.586,10.189,11.45,11.719Z"/><path class="c" d="M389.472,97.8a28.133,28.133,0,0,1-.233-8.607,20.487,20.487,0,0,1,2.8-8.223A25.119,25.119,0,0,1,405.943,69.85a30.4,30.4,0,0,1,9.232-1.095,23.048,23.048,0,0,1,9.017,1.8A25.149,25.149,0,0,1,437.2,82.972a27.817,27.817,0,0,1,2.182,9.056c.339,3.419.484,7.114-.833,10.355a1.814,1.814,0,0,0,1.257,2.214,1.843,1.843,0,0,0,2.215-1.257c1.293-3.182,1.308-6.865,1.055-10.241a36.2,36.2,0,0,0-1.787-9.587,28.274,28.274,0,0,0-13.413-15.177,27.842,27.842,0,0,0-10.2-3.066,34.034,34.034,0,0,0-10.465.512A28.853,28.853,0,0,0,390.262,77.1,27.546,27.546,0,0,0,386,98.753c.5,2.262,3.968,1.305,3.471-.957Z"/><path class="c" d="M438.391,104.878a1.565,1.565,0,0,1,2.16.286,3.617,3.617,0,0,1,.331,1.808,11.229,11.229,0,0,1-.152,2.294c-.5,2.721-1.846,6.01-4.877,6.553a1.816,1.816,0,0,0-1.257,2.214,1.84,1.84,0,0,0,2.214,1.258c4.912-.881,7.26-6.41,7.63-10.862.194-2.344-.044-4.949-2.063-6.456a5.238,5.238,0,0,0-6.532.36,1.814,1.814,0,0,0,0,2.545,1.839,1.839,0,0,0,2.546,0Z"/><path class="c" d="M434.5,115.017a12.643,12.643,0,0,1-.739,3.4c-.058.174-.431,1.1-.157.513-.112.242-.219.483-.339.721a29.323,29.323,0,0,1-2.52,4.051c-2.131,2.922-5.162,6.106-8.765,6.951-2.254.529-1.3,4,.957,3.472,4.569-1.072,8.106-4.8,10.793-8.438,2.314-3.133,4.208-6.686,4.37-10.665.093-2.317-3.507-2.313-3.6,0Z"/><path class="c" d="M392.633,102.333a5.24,5.24,0,0,0-6.532-.36c-2.022,1.5-2.257,4.117-2.063,6.456.37,4.452,2.718,9.981,7.63,10.862a1.851,1.851,0,0,0,2.214-1.258,1.816,1.816,0,0,0-1.257-2.214c-3.031-.543-4.38-3.832-4.877-6.553a11.022,11.022,0,0,1-.154-2.162,4.284,4.284,0,0,1,.277-1.849,1.547,1.547,0,0,1,2.216-.377,1.85,1.85,0,0,0,2.546,0,1.814,1.814,0,0,0,0-2.545Z"/><path class="c" d="M390.548,114.9a26.782,26.782,0,0,0,5.721,12.818,19.2,19.2,0,0,0,12.545,7.1,1.812,1.812,0,0,0,1.8-1.8,1.841,1.841,0,0,0-1.8-1.8c-4.151-.448-7.645-3.153-10.208-6.3a23.588,23.588,0,0,1-4.587-10.979,1.814,1.814,0,0,0-2.214-1.257,1.84,1.84,0,0,0-1.257,2.214Z"/><path class="c" d="M421.713,87.379c1,3.063,3.294,5.619,5.61,7.779a33.133,33.133,0,0,0,6.667,5.017,1.8,1.8,0,0,0,1.817-3.109,23.462,23.462,0,0,1-2.677-1.736c-.152-.112-.3-.224-.454-.338-.113-.085-.345-.265-.1-.075q-.42-.329-.833-.667-.9-.737-1.753-1.526a28.807,28.807,0,0,1-3.11-3.32l.042.054c-.062-.082-.123-.165-.184-.248-.105-.144-.207-.289-.308-.436-.194-.285-.379-.575-.553-.873s-.31-.576-.459-.869c-.214-.418.063.211-.059-.123-.059-.162-.119-.323-.173-.487a1.84,1.84,0,0,0-2.214-1.257,1.818,1.818,0,0,0-1.257,2.214Z"/><path class="c" d="M407.053,86.357a87.23,87.23,0,0,1-7.7,7.97,67.8,67.8,0,0,1-8.663,6.925,1.842,1.842,0,0,0-.646,2.463,1.82,1.82,0,0,0,2.463.646A80.521,80.521,0,0,0,409.6,88.9a1.849,1.849,0,0,0,0-2.546,1.815,1.815,0,0,0-2.545,0Z"/><path class="c" d="M423.692,82.25a30.184,30.184,0,0,1-7.32,6.938,28.557,28.557,0,0,1-9.571,3.884c-2.263.493-1.305,3.964.957,3.472A31.748,31.748,0,0,0,426.238,84.8a1.861,1.861,0,0,0,0-2.546,1.812,1.812,0,0,0-2.546,0Z"/><path class="c" d="M431.826,135.707a13.853,13.853,0,0,0,7.847,2.037c1.834-.079,4.156-.423,5.514-1.8a2.4,2.4,0,0,0,.474-2.825c-.62-1.061-2.091-1.282-2.594-2.527a2.377,2.377,0,0,1,.038-1.568c.2-.842.415-1.684.651-2.518.445-1.572,1.171-3.06,1.587-4.632.879-3.316-.1-6.458-1.645-9.395-1.081-2.05-4.189-.233-3.109,1.817a10.778,10.778,0,0,1,1.507,4.666c.058,2.189-1.107,4.171-1.708,6.228-.555,1.9-1.4,4.108-.873,6.093a7.507,7.507,0,0,0,3.683,4.3l-.827-1.076a1.345,1.345,0,0,1,.115-.905c.1-.2.071-.19.241-.246a2.608,2.608,0,0,0-.377.228c-.274.151.073-.016-.124.062a7.558,7.558,0,0,1-2.29.487,10.492,10.492,0,0,1-6.293-1.531c-1.975-1.224-3.784,1.889-1.817,3.108Z"/><path class="c" d="M428.324,98.958a6.9,6.9,0,0,1-1.339-.072l.479.065a10.962,10.962,0,0,1-2.69-.7l.43.181a4.983,4.983,0,0,1-1.089-.606l.364.281a2.347,2.347,0,0,1-.4-.4l.281.364a1.543,1.543,0,0,1-.171-.291l.181.43a1.174,1.174,0,0,1-.075-.271l.064.478a1.189,1.189,0,0,1,0-.286l-.064.478c.007-.043.016-.085.027-.127a1.8,1.8,0,0,0-3.472-.957c-.786,3.147,3.116,4.521,5.513,4.877a9.378,9.378,0,0,0,1.964.157,1.914,1.914,0,0,0,1.273-.527,1.8,1.8,0,0,0-1.273-3.073Z"/><path class="c" d="M352.893,60.872a18.605,18.605,0,0,0-13.938,14.364,21.8,21.8,0,0,0,.666,12.236,19.46,19.46,0,0,0,6.7,8.652,21.684,21.684,0,0,0,21.359,2.344,20.126,20.126,0,0,0,11.726-17.607A19.91,19.91,0,0,0,375.6,68.167a20.349,20.349,0,0,0-9.81-6.876c-2.2-.748-3.142,2.728-.957,3.472a15.759,15.759,0,0,1,10.9,13.479,16.771,16.771,0,0,1-7.669,15.971,17.823,17.823,0,0,1-17.685.234,16.389,16.389,0,0,1-6.414-6.16,16.554,16.554,0,0,1-1.878-9.721,16.4,16.4,0,0,1,3.664-9.446,15.554,15.554,0,0,1,8.1-4.776c2.245-.566,1.294-4.039-.957-3.472Z"/><path class="c" d="M364.145,71.9a9.351,9.351,0,0,1,4.713,8.774,9.689,9.689,0,0,1-4.829,7.941c-5.851,3.348-14.659-.261-15.058-7.407-.223-3.977,1.259-7.737,4.906-9.611,2.062-1.058.243-4.166-1.817-3.108-4.23,2.173-6.424,6.443-6.683,11.085a12.855,12.855,0,0,0,6.1,11.775,14.265,14.265,0,0,0,12.832,1.113,13.28,13.28,0,0,0,1.657-23.67c-2.013-1.154-3.828,1.955-1.817,3.108Z"/><path class="c" d="M351.648,48.727c0,7.442-.045,14.884-.046,22.326a1.826,1.826,0,0,0,1.8,1.8c3.868,0,7.736-.106,11.605-.11a1.827,1.827,0,0,0,1.8-1.8c0-7.352-.2-14.7-.185-22.058a1.8,1.8,0,0,0-3.6,0c-.018,7.353.18,14.706.185,22.058l1.8-1.8c-3.869,0-7.737.106-11.605.11l1.8,1.8c0-7.442.045-14.884.046-22.326a1.8,1.8,0,0,0-3.6,0Z"/><path class="a" d="M347.3,117.958a15.133,15.133,0,0,1,1.136-3.017c1.092-2.133,1.042-3.416.636-5.725-.366-2.078-1.739-8.186-.384-10.153l1.747-3.1a11.328,11.328,0,0,1-1-3.155c-.206-1.25-.582-3.6.087-4.732a5.557,5.557,0,0,1,2.457-2.3,17.9,17.9,0,0,1,7.738-1.343c1.274-.379,2.425-.883,3.772-.547.607.152,2.293,1.419,2.871,1.444a11.09,11.09,0,0,1,1.426,1.518c2.117-.15,4.311,1.912,5.857,3.774a9.587,9.587,0,0,1,2.017,3.218c.413,1.72-.068,2.618-.366,4.1a14.271,14.271,0,0,1-2.339,5.5,10.471,10.471,0,0,1-3.867,4.05,16.117,16.117,0,0,0-2.838,1.881,6.343,6.343,0,0,0-1.392,2.982c-.694,2.548-.818,5.161-1.552,7.7"/><path class="c" d="M349.038,118.436c.554-2.029,1.785-3.809,2.037-5.917a16.114,16.114,0,0,0-.467-4.869,41.461,41.461,0,0,1-.629-4.16,18.249,18.249,0,0,1-.05-2.3,2.078,2.078,0,0,1,.1-.686,3.253,3.253,0,0,1,.123-.412c-.112.277.028-.014.094-.118,1.246-1.961-1.868-3.769-3.109-1.817a7.674,7.674,0,0,0-.818,4.379,36.987,36.987,0,0,0,.634,5.082,20.66,20.66,0,0,1,.586,4.152,5.843,5.843,0,0,1-.722,2.4,19.016,19.016,0,0,0-1.25,3.31,1.8,1.8,0,0,0,3.471.957Z"/><path class="c" d="M366.847,83.6c-.393-.063.065.1-.217-.06-.227-.132-.461-.253-.688-.386-.432-.252-.856-.523-1.311-.734-1.583-.737-3.207-.354-4.8.1a5.169,5.169,0,0,1-1.283.063,18.806,18.806,0,0,0-2.21.2,20.319,20.319,0,0,0-3.989.934c-2.791.986-4.957,3.108-4.994,6.2a14.537,14.537,0,0,0,1.632,7.135,4.136,4.136,0,0,0,3.473,2.153,3.5,3.5,0,0,0,3.58-2.269,1.811,1.811,0,0,0-1.257-2.214,1.845,1.845,0,0,0-2.214,1.257.545.545,0,0,1,.313-.414q-.273.155-.029.025-.318.07-.039.019a2.788,2.788,0,0,1-.354,0c.187.03.176.023-.034-.019q-.309-.1-.019.021c-.181-.107-.172-.087.025.061-.135-.159-.17-.185-.107-.077a8.58,8.58,0,0,1-1.087-2.962,10.161,10.161,0,0,1-.264-3.178,1.63,1.63,0,0,1,.47-1.01,3.566,3.566,0,0,1,1.1-.932,14.366,14.366,0,0,1,7.03-1.293,9.626,9.626,0,0,0,2.352-.555,4.9,4.9,0,0,1,.968-.072c.08.019.158.042.235.068-.223-.095-.233-.093-.028.006a8.508,8.508,0,0,0,2.794,1.4,1.856,1.856,0,0,0,2.215-1.257,1.814,1.814,0,0,0-1.257-2.214Z"/><path class="c" d="M352.183,90.8a38.033,38.033,0,0,0,.622,4.393,8.018,8.018,0,0,0,1.537,3.834,4.216,4.216,0,0,0,5.027.653,3.963,3.963,0,0,0,1.695-1.788,5.857,5.857,0,0,0,.445-2.556,38.819,38.819,0,0,0-.672-5.43,1.8,1.8,0,0,0-2.214-1.257,1.854,1.854,0,0,0-1.257,2.214c.1.613.2,1.224.294,1.837.025.167.049.334.074.5.014.1.035.349-.012-.1.006.064.016.127.024.191.046.357.085.714.114,1.073a12.406,12.406,0,0,1,.019,1.859c-.022.312.117-.429,0-.037a1.231,1.231,0,0,0-.054.183c-.019.157.082-.2.094-.209a1.292,1.292,0,0,0-.188.328c.066-.256.243-.274.1-.141-.055.054-.12.11-.169.169-.136.166.327-.206.138-.1-.056.031-.108.072-.164.1s-.088.046-.13.072c-.246.146.118-.072.154-.063a1.6,1.6,0,0,0-.4.107c.035-.029.463-.022.161-.026-.092,0-.183,0-.275,0-.438-.018.275.083-.038,0-.076-.021-.159-.046-.237-.062-.391-.084.205.071.174.085a.74.74,0,0,1-.129-.072c-.163-.1.058-.074.184.146a1.32,1.32,0,0,0-.217-.226c.356.323.157.212.043.02-.06-.1-.111-.21-.165-.316-.131-.256.161.429,0,0-.044-.121-.085-.244-.122-.367a13.9,13.9,0,0,1-.354-1.493c-.1-.537-.209-1.074-.3-1.613-.025-.146-.048-.292-.07-.439a2.213,2.213,0,0,0-.032-.227c.118.45.027.2.011.061-.051-.434-.088-.869-.118-1.305a1.8,1.8,0,0,0-3.6,0Z"/><path class="c" d="M363.433,88.9a15.729,15.729,0,0,0-.331,2.523c-.082.99-.142,1.981-.223,2.971-.039.482-.083.963-.138,1.443-.012.113-.029.225-.04.337-.02.2.039-.279.033-.246-.01.06-.017.121-.026.18-.029.2-.061.392-.1.587-.034.169-.07.338-.116.5-.02.073-.044.144-.065.216-.092.32.072-.157.081-.167a.7.7,0,0,0-.078.148c-.112.25.223-.27.174-.221-.186.186.276-.158.161-.117a1.672,1.672,0,0,0-.278.157c-.176.114.4-.137.187-.079-.059.016-.117.041-.175.059-.125.039-.25.065-.377.095-.4.092.381-.01-.024,0-.138,0-.274,0-.412,0-.4,0,.347.108-.028-.006-.09-.027-.5-.164-.212-.051.395.153-.377-.244-.026-.023.207.131.087.063.031.01-.255-.245.228.348.029.041a1.8,1.8,0,1,0-3.109,1.817,4.275,4.275,0,0,0,4.46,1.721,3.6,3.6,0,0,0,2.817-1.81,10.642,10.642,0,0,0,.7-3.253c.125-1.12.2-2.245.278-3.369.04-.557.081-1.114.138-1.67.013-.123.027-.245.04-.367.049-.437-.068.405-.01.076.032-.185.061-.369.107-.552a1.8,1.8,0,0,0-3.472-.957Z"/><path class="c" d="M358.6,107.8c1.952-.876,2.442-2.929,3.418-4.625.049-.085.2-.277-.031.029a2.843,2.843,0,0,1,.225-.262c.241-.243.474-.49.733-.716a9.638,9.638,0,0,1,2.585-1.59,6.972,6.972,0,0,0,2.927-1.816,4.99,4.99,0,0,0,.6-6.227,4.842,4.842,0,0,0-1.086-1.214c-.1-.077-.55-.589-.309-.187a1.714,1.714,0,0,1-.193-.51,2.575,2.575,0,0,1,.121-1.786c.363-.512.983-.2,1.517.056a11.454,11.454,0,0,1,4.638,4.887,4.337,4.337,0,0,1-.047,3.044,17.181,17.181,0,0,1-.968,3.326,14.273,14.273,0,0,1-3.464,4.977c-.983.806-2.171,1.311-3.2,2.043a6.614,6.614,0,0,0-2.487,3.2c-1.107,2.927-1.169,6.136-1.994,9.14a1.8,1.8,0,0,0,3.472.957c.8-2.928.805-6.131,1.931-8.965.443-1.115,1.409-1.577,2.395-2.155a14.247,14.247,0,0,0,3-2.2,19.173,19.173,0,0,0,3.924-6.246,24.047,24.047,0,0,0,.915-3.306,8.356,8.356,0,0,0,.192-4.3c-.659-2.312-2.691-4.549-4.479-6.085-1.821-1.565-4.624-3.112-7-1.728-1.874,1.094-2.344,3.573-2.031,5.556a4.68,4.68,0,0,0,1.21,2.641c.6.564,1.414.963,1.125,1.977-.407,1.426-2.443,1.7-3.549,2.32a12.673,12.673,0,0,0-2.734,2.056,6.881,6.881,0,0,0-1.248,1.643c-.525,1-.813,2.454-1.922,2.952a1.814,1.814,0,0,0-.646,2.462,1.841,1.841,0,0,0,2.463.646Z"/><path class="c" d="M402,132.488a17.929,17.929,0,0,1-.825,4.735c-.088.314.148-.268-.008.022-.06.11-.112.223-.174.331s-.128.218-.2.324c-.042.064-.3.427-.158.238s-.106.125-.149.175c-.087.1-.177.2-.269.3q-.3.324-.637.62c-.208.187-.425.362-.642.539.242-.2.036-.03-.086.059s-.269.193-.4.286c-.5.343-1.016.661-1.543.959a29.845,29.845,0,0,1-2.732,1.349c-.362.159.285-.114.031-.013l-.281.115q-.237.1-.474.186c-.175.067-.349.132-.526.192a1.843,1.843,0,0,0-1.257,2.214,1.818,1.818,0,0,0,2.214,1.258,29.238,29.238,0,0,0,4.664-2.093c2.23-1.237,4.686-2.937,5.781-5.332a16.7,16.7,0,0,0,1.273-6.462,1.8,1.8,0,0,0-3.6,0Z"/><path class="c" d="M421.875,132.488c.041,2.817-.221,6.183,1.875,8.373A21.693,21.693,0,0,0,430.31,145q1.168.548,2.363,1.037a1.806,1.806,0,0,0,2.214-1.257,1.856,1.856,0,0,0-1.257-2.215l-.136-.056c-.238-.092.4.171.263.111l-.192-.082q-.545-.236-1.085-.483c-1.018-.467-2.022-.966-3-1.511-.534-.3-1.062-.611-1.575-.946-.245-.161-.488-.327-.725-.5-.152-.111-.28-.229-.048-.032-.125-.106-.255-.206-.379-.315-.172-.151-.339-.308-.5-.474-.051-.054-.355-.36-.132-.133.2.2-.033-.05-.083-.131-.06-.1-.1-.206-.162-.305.151.254.066.159,0-.048a8.6,8.6,0,0,1-.227-.987c-.006-.03-.049-.286-.014-.07.039.246-.027-.238-.027-.235-.02-.189-.036-.379-.05-.568-.03-.406-.049-.813-.061-1.22-.02-.7-.018-1.394-.028-2.091a1.8,1.8,0,0,0-3.6,0Z"/><path class="d" d="M449.167,204.07a30.457,30.457,0,0,0,4.2,4.267c2.919,2.54,9.017,6.029,12.255,1.916,2.783-3.533,3-5.069,2.2-9.21a158.373,158.373,0,0,0-4.591-17.345c-1.248-3.675-1.791-5.7-3.218-9.285-1.4-4.005-4.765-15.771-9.5-21.011-4.96-5.487-15.522-9.954-16.09-8.914-3.258,2.953-13.355,5.978-20.741,5.96-7.807-.02-16.162-2.905-20.6-5.809l-.073-.048c-7.671-.071-19.561,1.709-24.069,1.476-4.831-.25-5.865-.042-10.67-.175l-.544-.015c1.463-7.872,4.844-21.605,6.122-26.64-4.405.179-13.786-.854-17.325-.309-.8,2.67-7.229,18.647-9.176,24.9-1.408,4.516-4.443,14.221.366,18.04,2.5,1.988,8.346,3,11.213,3.2,3.648.264,37.627,3.886,33.816,4.469,1.389,9.668,3.9,24.39,5.466,32.145.331,2.634-.753,10.489-2.122,18.429h53.187Z"/><path class="c" d="M412.543,266.3c-.35,3.9-.308,7.845-.335,11.754-.041,5.72-.014,11.44.022,17.161.015,2.315,3.615,2.321,3.6,0-.036-5.721-.063-11.441-.022-17.161.027-3.909-.015-7.857.335-11.754.207-2.307-3.395-2.293-3.6,0Z"/><path class="c" d="M386.032,219.786a144.854,144.854,0,0,0-4.889,27.125,198.413,198.413,0,0,0,.231,30.99c.424,5.779.983,11.547,1.543,17.314.223,2.285,3.825,2.308,3.6,0-1.954-20.1-3.839-40.475-.132-60.5.868-4.688,1.823-9.384,3.118-13.975.63-2.233-2.843-3.187-3.471-.957Z"/><path class="c" d="M437.851,220.743a139.622,139.622,0,0,1,4.8,26.65,200.257,200.257,0,0,1-.27,30.5c-.424,5.778-.982,11.545-1.543,17.312-.224,2.3,3.377,2.289,3.6,0,1.989-20.462,3.774-41.072,0-61.446-.867-4.688-1.823-9.384-3.118-13.975-.628-2.226-4.1-1.28-3.471.957Z"/><path class="c" d="M387.767,221.91h42.695a1.8,1.8,0,0,0,0-3.6H387.767a1.8,1.8,0,0,0,0,3.6Z"/><path class="c" d="M392.167,146.193a40.6,40.6,0,0,0,23.129,6.013,47.577,47.577,0,0,0,11.49-2.1,25.366,25.366,0,0,0,8.732-4.192c1.791-1.473-.769-4.007-2.546-2.546-2.125,1.747-5.093,2.665-7.686,3.431a42.853,42.853,0,0,1-10.356,1.826,37.272,37.272,0,0,1-20.946-5.538c-1.954-1.258-3.761,1.857-1.817,3.108Z"/><path class="c" d="M386.4,201.681a31.877,31.877,0,0,1-.435,7.321c-.462,3.758-1.079,7.5-1.727,11.229a1.852,1.852,0,0,0,1.258,2.214,1.814,1.814,0,0,0,2.214-1.257c.685-3.946,1.319-7.9,1.816-11.877a32.833,32.833,0,0,0,.474-7.63,1.854,1.854,0,0,0-1.8-1.8,1.812,1.812,0,0,0-1.8,1.8Z"/><path class="c" d="M395.746,142.91c-6.373-.572-12.908.421-19.251.974a161.4,161.4,0,0,1-18.232.208c-2.318-.061-2.316,3.539,0,3.6a161.4,161.4,0,0,0,18.232-.208c6.343-.553,12.878-1.546,19.251-.974,2.306.207,2.292-3.394,0-3.6Z"/><path class="c" d="M380.454,166.048c1.584,12.085,3.606,24.163,6.012,36.112.457,2.269,3.927,1.308,3.471-.958-2.342-11.631-4.341-23.39-5.883-35.154a1.861,1.861,0,0,0-1.8-1.8,1.809,1.809,0,0,0-1.8,1.8Z"/><path class="c" d="M382.733,167.382a142.093,142.093,0,0,0-15.344-2.147c-5.577-.656-11.16-1.281-16.75-1.815a47.628,47.628,0,0,1-6.984-1.022,12.533,12.533,0,0,1-4.864-1.961,5.678,5.678,0,0,1-1.809-3.744c-.464-3.46.511-7.085,1.479-10.377.81-2.758,1.765-5.467,2.757-8.164,1.395-3.795,2.848-7.567,4.292-11.343.937-2.449,1.975-4.893,2.742-7.4L347,120.664a47.9,47.9,0,0,1,8.034.09c2.93.148,5.877.386,8.812.283l-1.736-2.279q-1.838,7.247-3.523,14.53c-1.165,5.026-2.394,10.083-3.123,15.195a1.865,1.865,0,0,0,1.257,2.215,1.811,1.811,0,0,0,2.214-1.258c.729-5.112,1.959-10.169,3.123-15.195q1.688-7.283,3.524-14.53a1.818,1.818,0,0,0-1.736-2.278c-5.908.207-11.925-1.081-17.8-.245a1.774,1.774,0,0,0-1.258,1.257c-.683,2.238-1.6,4.418-2.435,6.6-1.328,3.476-2.666,6.948-3.965,10.435-2.286,6.132-5.018,12.733-5.085,19.367-.038,3.731,1.184,7.455,4.65,9.3,3.327,1.772,7.322,2.413,11.037,2.72,4.906.4,9.8.98,14.691,1.534,3.685.418,7.37.852,11.047,1.336,2.352.309,4.742.577,7.056,1.112,2.254.521,3.216-2.949.957-3.472Z"/><path class="e" d="M440.589,200.642c-4.161.64-5.1,12.195-5.406,17.22a132.509,132.509,0,0,0,.082,18.177,58.509,58.509,0,0,0,1.3,9.717c.926,3.638,1.406,8.1,5.731,8.662,4.045.529,16.709-2.8,18.482-3.743,2.007-1.069,1.685-2.622,1.8-4.741a47.017,47.017,0,0,0-.942-10.74c-.562-3.338-1.668-9.072-2.627-12.393,0,0-6.874-20.957-11.413-21.758"/><path class="c" d="M440.111,198.907c-3.511.669-4.754,5.274-5.4,8.222a73.082,73.082,0,0,0-1.38,11.717,136.364,136.364,0,0,0,.351,19.813,59.736,59.736,0,0,0,1.369,8.451,19.308,19.308,0,0,0,1.961,5.784c2.28,3.693,6.259,3.575,10.049,3.04a79.665,79.665,0,0,0,11.307-2.516,17.067,17.067,0,0,0,3.328-1.189c2.3-1.251,2.589-3.4,2.668-5.778a56.443,56.443,0,0,0-1.367-13.639c-.826-3.888-1.746-7.757-2.71-11.613a94.9,94.9,0,0,0-3.14-11.024c-.822-2.141-4.3-1.211-3.472.957a77.865,77.865,0,0,1,2.472,8.394q1.363,5.256,2.561,10.553c.6,2.643,1.172,5.278,1.584,7.958a44.871,44.871,0,0,1,.472,8.414,4.5,4.5,0,0,1-.268,2.2,1.836,1.836,0,0,1-.69.51c-.355.2.3-.082-.212.085a86.126,86.126,0,0,1-9.013,2.415c-1.667.353-3.351.686-5.047.874a8.085,8.085,0,0,1-3.993-.151c-1.394-.606-1.959-2.213-2.352-3.559a52.629,52.629,0,0,1-1.492-6.593,105.169,105.169,0,0,1-.969-17.477,100.185,100.185,0,0,1,.957-13.974,28.444,28.444,0,0,1,1.432-5.943,7.061,7.061,0,0,1,1-1.866,1.511,1.511,0,0,1,.958-.59c2.273-.434,1.31-3.9-.957-3.471Z"/><path class="d" d="M435.157,144.356c2.6.324,11.065,4.3,15.351,9.046,4.738,5.24,8.1,17.006,9.5,21.011,1.427,3.582,1.97,5.61,3.218,9.285a158.373,158.373,0,0,1,4.591,17.345c.794,4.141.58,5.677-2.2,9.21-3.238,4.113-9.336.624-12.255-1.916-4-3.485-6.465-6.4-7.367-11.7l-3.235-17.754Z"/><path class="c" d="M450.722,203.162a15.959,15.959,0,0,1-2.008-3.383,1.8,1.8,0,0,0-1.076-.828,1.84,1.84,0,0,0-1.387.182,1.813,1.813,0,0,0-.827,1.076l-.065.478a1.792,1.792,0,0,0,.246.909,16,16,0,0,0,2.008,3.383,2.016,2.016,0,0,0,1.076.827,1.84,1.84,0,0,0,1.387-.181,1.817,1.817,0,0,0,.827-1.076,1.738,1.738,0,0,0-.181-1.387Z"/><path class="d" d="M444.8,169.307a74.374,74.374,0,0,0-1.5-14.216c-1.159-5.459-2.7-8.81-4.2-10.212-1.134-.541-3.152-1-3.905-.4,1.728,2.177,2.612,8.7,3,12.013.383,3.243.8,16.82.79,16.586l.236,17.185a98.448,98.448,0,0,1-.2,10.774l5.876.033a49.128,49.128,0,0,0,.2-9.752Z"/><path class="c" d="M434.678,146.091a20.392,20.392,0,0,1,6.461,2.6,30.945,30.945,0,0,1,7.761,5.621,26.317,26.317,0,0,1,4.506,7.3,88.009,88.009,0,0,1,3.3,8.559c1.94,5.733,4.061,11.408,5.808,17.207q1.567,5.2,2.793,10.5c.584,2.52,1.794,5.84.763,8.374-.543,1.337-1.679,3.245-3.054,3.846a5.494,5.494,0,0,1-4.078-.358c-3.363-1.346-6.288-4.147-8.5-6.943a1.81,1.81,0,0,0-2.545,0,1.842,1.842,0,0,0,0,2.545c3.575,4.533,12.1,11.972,18.068,7.106a11.01,11.01,0,0,0,4.014-9.036,66.287,66.287,0,0,0-2.318-11.006c-1.824-6.974-4.344-13.674-6.594-20.509-2.012-6.112-4.027-12.674-7.833-17.946a28.537,28.537,0,0,0-8.905-7.592c-2.587-1.521-5.669-3.307-8.692-3.74a1.863,1.863,0,0,0-2.214,1.257,1.811,1.811,0,0,0,1.257,2.214Z"/><path class="c" d="M445.769,198.812a21.956,21.956,0,0,1-2.7-.179,9.551,9.551,0,0,0-1.332-.031,5.076,5.076,0,0,0-1.629.305,1.974,1.974,0,0,0-1.076.827,1.8,1.8,0,0,0,.646,2.463,1.738,1.738,0,0,0,1.387.181,3.238,3.238,0,0,1,.787-.206l-.478.065c1.467-.186,2.925.239,4.392.175a1.8,1.8,0,1,0,0-3.6Z"/><path class="c" d="M443.7,190.717a44.156,44.156,0,0,1,.147,4.715c-.01.888-.037,1.777-.091,2.664-.026.411-.057.821-.1,1.23-.017.167-.04.333-.057.5-.024.234.067-.433.014-.119-.016.095-.031.19-.047.285a1.843,1.843,0,0,0,1.257,2.214,1.821,1.821,0,0,0,2.214-1.257,33.953,33.953,0,0,0,.407-5.377,44.671,44.671,0,0,0-.145-4.854,1.841,1.841,0,0,0-1.8-1.8,1.819,1.819,0,0,0-1.8,1.8Z"/><path class="c" d="M437.823,189.663c.139,1.782.083,3.591.049,5.376s-.053,3.61-.246,5.4a1.8,1.8,0,0,0,1.8,1.8,1.852,1.852,0,0,0,1.8-1.8c.193-1.788.212-3.6.246-5.4s.09-3.594-.049-5.376a1.8,1.8,0,0,0-3.6,0Z"/><path class="c" d="M446.659,173.412a104.335,104.335,0,0,0-1.3-17.165,32.976,32.976,0,0,0-3.289-10.372,5.88,5.88,0,0,0-2.767-2.854c-1.532-.6-3.526-1.009-5.015-.1a1.812,1.812,0,0,0-.646,2.462c1.375,1.838,1.727,4.49,2.118,6.688a58.694,58.694,0,0,1,.794,6.212c.314,4.543.447,9.1.6,13.653.077,2.311,3.677,2.321,3.6,0-.157-4.7-.279-9.414-.632-14.106a66.821,66.821,0,0,0-.921-6.887c-.441-2.438-.927-5.342-2.449-7.377l-.646,2.463c.355-.218,1.266.12,1.618.233a.852.852,0,0,1,.6.415A11.8,11.8,0,0,1,439.9,149.7a45.788,45.788,0,0,1,2.342,9.69,104.839,104.839,0,0,1,.819,14.022c.031,2.314,3.631,2.321,3.6,0Z"/><path class="a" d="M446.521,195.9c4.231.971,5.8,1.562,10.325-.3,4.365-1.8,3.431-7.1,1.158-10.188-2.422-3.29-2.876-3.387-5.712-6.228-3.472-3.477-6.1-5.532-11.1-6.441-2.19-.4-4.527-1.16-6.332.5-2.04,1.872-1.68,4.579,1.124,5.011-2.554-.745-3.725,2.485-2.07,4.471-1.942.687-1.868,2.874-1.229,4.257.593,1.286,4.5,1.878,5.43,1.982-2.028.232-3.387,1.087-3.621,2.382-.152.843-.095,1.73,1.472,2.579,2.845,1.54,6.712,1.311,9.9,1.761"/><path class="c" d="M446.042,197.634a20.756,20.756,0,0,0,6.742.926A12.537,12.537,0,0,0,459.568,196c3.187-2.81,2.4-7.827.305-11.039a27.862,27.862,0,0,0-3.825-4.629c-1.615-1.585-3.2-3.232-4.914-4.707a21.764,21.764,0,0,0-13.072-5.192,5.96,5.96,0,0,0-6.144,4.234,4.3,4.3,0,0,0,3.587,5.321c2.25.437,3.233-2.935.957-3.471-4.207-.992-6.527,3.92-4.1,7.115l1.076-2.644a4.315,4.315,0,0,0-2.9,3.6,5.147,5.147,0,0,0,.968,3.814c1.519,1.752,4.442,2.1,6.616,2.358l-.479-3.535a5.75,5.75,0,0,0-4.543,2.715,3.963,3.963,0,0,0,.629,4.552c2.963,3.021,8.313,2.485,12.14,2.99.972.128,1.791-.92,1.8-1.8a1.843,1.843,0,0,0-1.8-1.8c-2.648-.35-5.423-.22-7.98-1.084a4.313,4.313,0,0,1-1.615-.851c-.132-.126-.059-.074-.024.093a.744.744,0,0,1,.018-.346,3.041,3.041,0,0,1,2.332-1,1.781,1.781,0,0,0,1.29-1.975,1.832,1.832,0,0,0-1.768-1.561q-.264-.032.027.006c-.137-.02-.274-.041-.411-.064-.336-.059-.671-.118-1-.189a11.562,11.562,0,0,1-1.993-.567c-.584-.242-.555-.227-.64-.862-.042-.312-.072-.872.3-1.027.937-.393,1.861-1.609,1.076-2.644-.31-.409-1.018-2.076.038-1.827l.957-3.471c-1.163-.227-1.431-.825-.573-1.765,1.206-1.32,3.33-.564,4.824-.271a17.444,17.444,0,0,1,8.937,4.646,53.261,53.261,0,0,1,6.539,6.843c1.308,1.762,2.922,4.9,1.329,6.989-1.015,1.329-3.463,1.894-5.042,2.034a17.655,17.655,0,0,1-5.477-.825c-2.254-.521-3.216,2.949-.957,3.471Z"/><path class="c" d="M441.939,177.661a51.227,51.227,0,0,0-5.956-1.214,1.794,1.794,0,0,0-1.272.527,1.8,1.8,0,0,0,0,2.546,2.076,2.076,0,0,0,1.272.527c.11.013.22.026.329.041l-.478-.065c1.744.237,3.438.705,5.148,1.109a1.8,1.8,0,1,0,.957-3.471Z"/><path class="c" d="M440.826,182.685a22.28,22.28,0,0,0-2.832-.646c-.929-.174-1.862-.325-2.788-.513a1.917,1.917,0,0,0-1.387.181,1.8,1.8,0,0,0,.43,3.29c.926.188,1.859.339,2.788.514a22.277,22.277,0,0,1,2.832.645,1.813,1.813,0,0,0,2.214-1.257,1.841,1.841,0,0,0-1.257-2.214Z"/><path class="c" d="M440.932,187.746a14.915,14.915,0,0,0-2.7-.418l.478.064a3.286,3.286,0,0,1-.546-.112,1.8,1.8,0,0,0-2.215,1.258,1.825,1.825,0,0,0,.182,1.387,1.936,1.936,0,0,0,1.076.827,6.64,6.64,0,0,0,1.245.2c.332.037.666.066,1,.11l-.479-.064a5.708,5.708,0,0,1,1,.217,1.8,1.8,0,0,0,2.033-2.644,1.958,1.958,0,0,0-1.076-.828Z"/><path class="c" d="M399.927,112.641c-2-3.406-3.655-7.1-6.2-10.151a1.808,1.808,0,0,0-2.546,0,1.849,1.849,0,0,0,0,2.546c.042.051.159.252.219.269-.1-.028-.276-.368-.054-.066.133.179.262.359.389.542.3.428.582.865.859,1.3.592.939,1.155,1.9,1.706,2.861.855,1.495,1.65,3.026,2.521,4.511a1.8,1.8,0,0,0,3.109-1.817Z"/><path class="c" d="M430.907,114.458c1.765-2.848,3.65-5.628,5.5-8.421q.245-.369.49-.737c.157-.236.494-.535-.063.043l-3.073-1.273h0l.246-.908-.008.014a1.8,1.8,0,0,0,3.109,1.817,1.758,1.758,0,0,0,.253-.923,1.838,1.838,0,0,0-1.106-1.645,1.8,1.8,0,0,0-1.966.372,7.941,7.941,0,0,0-.8,1.137q-.654.986-1.3,1.975-1.625,2.465-3.235,4.939c-.387.595-.776,1.189-1.15,1.793a1.818,1.818,0,0,0,.645,2.463,1.836,1.836,0,0,0,2.463-.646Z"/><path class="a" d="M413.487,111.839c-3.412,0-9.1.528-12.794.818-.682.053-2.354.25-2.795.758-.822.943-.51,2.957-.616,4.1a29.8,29.8,0,0,0,.159,5.489c.246,2.412.366,4.983,1.989,6.865,3,3.478,9.951,5.331,14.518,5.331a27.176,27.176,0,0,0,8.936-1.649,11.611,11.611,0,0,0,6.122-4.631c1.229-2.069,1.181-4.143,1.445-6.5a24.976,24.976,0,0,0,.095-4.993c-.113-1.141.173-3.005-.659-3.96a4.7,4.7,0,0,0-2.5-.8C423.059,112.285,417.278,111.839,413.487,111.839Z"/><path class="c" d="M413.487,110.039c-3.463.015-6.925.339-10.373.622-2.87.235-6.84,0-7.469,3.607a29.6,29.6,0,0,0-.234,4.991,48.663,48.663,0,0,0,.428,5.668,9.867,9.867,0,0,0,5.214,8.582c6.024,3.722,13.788,4.286,20.487,2.369,3.584-1.026,7.248-2.856,9.128-6.242a14.079,14.079,0,0,0,1.438-5.707,39.16,39.16,0,0,0,.257-6.293c-.118-1.751.169-3.823-1.062-5.26-1.215-1.418-3.335-1.464-5.058-1.611-4.239-.36-8.5-.712-12.756-.726a1.8,1.8,0,0,0,0,3.6c3.169.011,6.337.225,9.5.464,1.462.11,2.952.163,4.4.361.2.028,1.263.3,1.12.147.312.325.2,1.21.205,1.6a42.471,42.471,0,0,1-.47,9.683c-.684,3.163-3.318,5.043-6.23,6.057a23.273,23.273,0,0,1-17.056-.465c-2.4-1.044-4.606-2.478-5.257-5.147a33.016,33.016,0,0,1-.6-9.086,17.053,17.053,0,0,1,.046-2.193,1.194,1.194,0,0,1,.149-.524c-.219.291-.066.123.239.094,1.315-.124,2.633-.3,3.955-.405,3.324-.272,6.662-.576,10-.591C415.8,113.63,415.808,110.029,413.487,110.039Z"/><path class="c" d="M400.6,105.338c-.372,1.207-.13,3.985,2.158,4.221,3.023-.018,3.184-3.376,2.166-4.955C404.09,103.311,401.64,102.773,400.6,105.338Z"/><path class="c" d="M424.811,105.338c.372,1.207.129,3.985-2.158,4.221-3.024-.018-3.185-3.376-2.167-4.955C421.319,103.311,423.77,102.773,424.811,105.338Z"/><path class="a" d="M277.643,86.818a3.7,3.7,0,0,1,2.966-.868,3.5,3.5,0,0,1,2.516,1.673,4.956,4.956,0,0,1,.519,1.991,14.836,14.836,0,0,1-1.513,7.861,9.429,9.429,0,0,1-2.437,3.2,6.242,6.242,0,0,1-2.906,1.31l-.494.076c-.243.9-.51,1.646-.641,2.045-.786,2.131-4.918,9.126-10.271,12.441.057.512.091.811.091.811.089.779.2,1.539.319,2.241.351,2.007.241,3.8,3.032,4.809.181.065,3.174,1.448,3.658,1.661-1.191,3.6-6.759,10.919-19.781,10.919-12.333,0-18.51-7.772-19.333-11.37.342-.146,3.008-1.144,3.193-1.21,2.791-1.008,2.681-2.8,3.032-4.809.151-.861.277-1.9.376-2.977l.021-.227a23.041,23.041,0,0,1-5.488-4.882,25.3,25.3,0,0,1-4.81-9.383l-.944-.145a6.242,6.242,0,0,1-2.906-1.31,9.429,9.429,0,0,1-2.437-3.2,14.836,14.836,0,0,1-1.513-7.861,4.956,4.956,0,0,1,.519-1.991,3.5,3.5,0,0,1,2.516-1.673,3.7,3.7,0,0,1,2.966.868s-4.629-26.194,24.54-26.194C281.266,60.624,277.643,86.818,277.643,86.818Z"/><path class="f" d="M223.955,72.884a27.128,27.128,0,0,1,3.667-11.757c2.148-3.69,7.181-8.12,12.16-10.215,2.357-.991,3.679-1.4,4.579-3.954.549.306,1.687.443,2.237.749,1.309-1.908,5.382-3.678,6.459-1.862a10.7,10.7,0,0,0,1.6-2.96,6.176,6.176,0,0,1,2.329,2.228c1.422,2.4,5.96,4.749,8.532,5.36,4.9,1.164,10.428,7.136,13.236,11.66,3.231,5.207,4.732,19.461,2.856,24.127a3.385,3.385,0,0,0-1-.31,3.664,3.664,0,0,0-3.174,1.074c-.359-2.572-2.35-7.893-3.456-10.727a25.106,25.106,0,0,0-3.172-6.485c-2.84-2.387-7.614-3.695-9.857-4.006-.976.817-3.784,2.866-4.715,3.873a20.954,20.954,0,0,0-3.448-3.03,19.138,19.138,0,0,0-3.466,2.99c-1.022-1.16-3.67-3.675-4.923-4.225-2.53.659-7.954,2.706-10.142,4.609-2.432,3.927-3.981,8.472-6.905,16.4a3.77,3.77,0,0,0-2.424-.472,3.575,3.575,0,0,0-.758.2l-.4-5.745C223.758,77.829,223.735,75.355,223.955,72.884Z"/><path class="c" d="M278.915,88.091a1.843,1.843,0,0,1,2.6.342,4.025,4.025,0,0,1,.381,2.045,12.37,12.37,0,0,1-.171,2.535c-.55,3.012-2.062,6.635-5.412,7.235a1.817,1.817,0,0,0-1.257,2.215,1.84,1.84,0,0,0,2.214,1.257c5.268-.945,7.784-6.883,8.18-11.658.207-2.484-.02-5.28-2.165-6.883a5.536,5.536,0,0,0-6.911.366,1.814,1.814,0,0,0,0,2.546,1.84,1.84,0,0,0,2.545,0Z"/><path class="c" d="M274.95,99.224a13.852,13.852,0,0,1-.809,3.733c-.073.223-.159.444-.224.669-.035.12-.179.417.038-.072-.117.264-.239.525-.369.783a31.8,31.8,0,0,1-2.74,4.4c-2.368,3.248-5.6,6.685-9.623,7.63-2.254.529-1.3,4,.957,3.471,4.926-1.155,8.743-5.178,11.64-9.1,2.5-3.383,4.556-7.218,4.73-11.517.094-2.316-3.507-2.312-3.6,0Z"/><path class="c" d="M229.166,85.545a5.538,5.538,0,0,0-6.911-.366c-2.147,1.6-2.371,4.4-2.165,6.883.4,4.774,2.912,10.713,8.18,11.658a1.852,1.852,0,0,0,2.214-1.257,1.817,1.817,0,0,0-1.257-2.215c-3.351-.6-4.862-4.224-5.412-7.235a12.2,12.2,0,0,1-.173-2.391,4.661,4.661,0,0,1,.323-2.09,1.828,1.828,0,0,1,2.656-.441,1.849,1.849,0,0,0,2.545,0,1.815,1.815,0,0,0,0-2.546Z"/><path class="c" d="M227.162,99.05a28.96,28.96,0,0,0,6.18,13.868,20.727,20.727,0,0,0,13.528,7.675,1.812,1.812,0,0,0,1.8-1.8,1.841,1.841,0,0,0-1.8-1.8c-4.568-.494-8.377-3.443-11.21-6.893a25.669,25.669,0,0,1-5.027-12.007,1.815,1.815,0,0,0-2.214-1.257,1.84,1.84,0,0,0-1.257,2.214Z"/><path class="c" d="M225.567,80.406c-.025-7.216.288-14.88,5.25-20.652a27.656,27.656,0,0,1,8.6-6.7,32.107,32.107,0,0,0,4-1.9,7.332,7.332,0,0,0,2.677-3.715l-2.645,1.076c.72.333,1.532.42,2.237.748a1.871,1.871,0,0,0,2.463-.646A4.929,4.929,0,0,1,250.17,47.2a4.16,4.16,0,0,1,1.025-.3c.465-.058.56.215.308-.143.587.835,2.054,1.356,2.827.364a15.354,15.354,0,0,0,1.879-3.325l-2.463.646c1.626.893,2.418,2.812,3.867,3.981a20.747,20.747,0,0,0,4.913,2.906c1.531.653,3.2.934,4.67,1.709a20.811,20.811,0,0,1,4.591,3.416,25.917,25.917,0,0,1,6.25,8.231,35.763,35.763,0,0,1,2.246,9.614c.39,3.386.7,7.084-.082,10.437-.529,2.253,2.942,3.215,3.472.957a31.557,31.557,0,0,0,.365-9.867,46.568,46.568,0,0,0-2.1-10.925,26.49,26.49,0,0,0-5.816-9.154c-2.748-3.025-6.111-5.916-10.131-7.007a17.285,17.285,0,0,1-5.639-2.72c-1.861-1.361-2.722-3.549-4.793-4.687a1.815,1.815,0,0,0-2.462.646,12.234,12.234,0,0,1-1.317,2.6l2.827.365c-2.459-3.5-7.6-.8-9.567,1.861l2.462-.646c-.719-.333-1.531-.42-2.237-.748a1.838,1.838,0,0,0-2.644,1.076,3.976,3.976,0,0,1-2.513,2.356,36.1,36.1,0,0,0-4.849,2.427,30.462,30.462,0,0,0-8.181,7.438c-4.7,6.308-5.141,14.154-5.115,21.705a1.8,1.8,0,0,0,3.6,0Z"/><path class="c" d="M229.745,85.107c1.583-4.31,3.035-8.752,5.256-12.788a3.679,3.679,0,0,1,1.412-1.643,24.184,24.184,0,0,1,2.865-1.5,36.065,36.065,0,0,1,5.6-2.022l-1.387-.181a16.336,16.336,0,0,1,4.559,3.943,1.813,1.813,0,0,0,2.545,0,12.466,12.466,0,0,1,3.1-2.709h-1.817a13.457,13.457,0,0,1,3.083,2.748,1.824,1.824,0,0,0,2.546,0,54.1,54.1,0,0,1,4.714-3.873l-1.751.463a23.129,23.129,0,0,1,5.777,1.646,10.978,10.978,0,0,1,3.114,1.757,9.3,9.3,0,0,1,1.611,2.7c.961,2.041,1.708,4.212,2.481,6.33a52.3,52.3,0,0,1,2.129,6.832c.489,2.263,3.96,1.305,3.472-.957a64.57,64.57,0,0,0-3.135-9.506c-1.106-2.862-2.151-6.623-4.741-8.51a22.663,22.663,0,0,0-8.832-3.609,3.341,3.341,0,0,0-2.306.024,12.809,12.809,0,0,0-1.563,1.231,32.486,32.486,0,0,0-3.516,2.924h2.546c-.681-.691-1.37-1.377-2.1-2.019-.7-.619-1.615-1.538-2.623-1.538-.973,0-1.864.871-2.559,1.454a23.488,23.488,0,0,0-2.18,2.064h2.545a28.648,28.648,0,0,0-3.147-3.006c-1.085-.891-2.254-1.985-3.751-1.623a33.343,33.343,0,0,0-8.554,3.5,7.442,7.442,0,0,0-3.034,2.876,40.357,40.357,0,0,0-1.836,3.7c-1.487,3.379-2.725,6.864-4,10.328-.8,2.178,2.678,3.118,3.471.957Z"/><path class="c" d="M182.311,57.816a18.6,18.6,0,0,0-13.937,14.363,21.8,21.8,0,0,0,.665,12.236,19.469,19.469,0,0,0,6.7,8.652A21.683,21.683,0,0,0,197.1,95.411,20.127,20.127,0,0,0,208.824,77.8a19.9,19.9,0,0,0-3.806-12.694,20.356,20.356,0,0,0-9.811-6.876c-2.2-.748-3.141,2.728-.957,3.472a15.756,15.756,0,0,1,10.9,13.479,16.771,16.771,0,0,1-7.669,15.972,17.824,17.824,0,0,1-17.684.233,16.379,16.379,0,0,1-6.414-6.159,16.551,16.551,0,0,1-1.878-9.722,16.392,16.392,0,0,1,3.663-9.446,15.558,15.558,0,0,1,8.1-4.776c2.246-.566,1.294-4.039-.957-3.471Z"/><path class="c" d="M193.564,68.846a9.35,9.35,0,0,1,4.712,8.773,9.688,9.688,0,0,1-4.828,7.941c-5.851,3.348-14.659-.261-15.059-7.407-.222-3.977,1.26-7.737,4.907-9.61,2.061-1.059.242-4.166-1.817-3.109-4.23,2.173-6.425,6.444-6.684,11.085a12.854,12.854,0,0,0,6.1,11.775,14.265,14.265,0,0,0,12.832,1.113,13.281,13.281,0,0,0,1.657-23.67c-2.013-1.154-3.829,1.955-1.817,3.109Z"/><path class="c" d="M181.067,45.671c0,7.441-.046,14.883-.047,22.325a1.826,1.826,0,0,0,1.8,1.8c3.869,0,7.737-.106,11.605-.11a1.825,1.825,0,0,0,1.8-1.8c0-7.352-.2-14.7-.185-22.057a1.8,1.8,0,0,0-3.6,0c-.017,7.352.181,14.7.185,22.057l1.8-1.8c-3.868,0-7.736.106-11.605.11l1.8,1.8c0-7.442.046-14.884.047-22.325a1.8,1.8,0,0,0-3.6,0Z"/><path class="a" d="M180.233,115.793a16.685,16.685,0,0,1,1-3.4c1.023-2.427.863-3.828.23-6.325-.57-2.247-2.573-8.828-1.248-11.094l1.66-3.544a12.443,12.443,0,0,1-1.347-3.376c-.328-1.352-.93-3.892-.29-5.191a6.1,6.1,0,0,1,2.5-2.716,19.677,19.677,0,0,1,8.369-2.1c1.365-.519,2.585-1.165,4.089-.907.677.116,2.628,1.368,3.263,1.347a12.331,12.331,0,0,1,1.687,1.548c2.307-.337,4.88,1.744,6.726,3.658a10.544,10.544,0,0,1,2.472,3.361c.592,1.852.139,2.875-.067,4.518a15.709,15.709,0,0,1-2.114,6.217,11.516,11.516,0,0,1-3.908,4.753,17.807,17.807,0,0,0-2.957,2.292,6.962,6.962,0,0,0-1.281,3.381c-.554,2.849-.476,5.723-1.073,8.569"/><path class="c" d="M178.66,94.067a7.965,7.965,0,0,0-.6,4.63,38.779,38.779,0,0,0,1.049,5.488,24.54,24.54,0,0,1,1.053,4.638,6.821,6.821,0,0,1-.588,2.916,20.077,20.077,0,0,0-1.072,3.576c-.441,2.263,3.028,3.232,3.471.957.446-2.29,1.666-4.376,1.791-6.723a17.184,17.184,0,0,0-.9-5.233c-.421-1.584-.823-3.176-1.09-4.794a13.939,13.939,0,0,1-.2-2.289c0-.244.026-.738.042-.832a3.023,3.023,0,0,1,.157-.517c1.094-2.041-2.013-3.862-3.108-1.817Z"/><path class="c" d="M198.463,76.687c.655.056-.2-.127,0-.047-.275-.11-.54-.256-.805-.387a11.857,11.857,0,0,0-1.721-.777c-1.63-.5-3.2.054-4.722.608a29.262,29.262,0,0,1-3.65.535,23.232,23.232,0,0,0-4.521,1.417c-2.888,1.23-5.11,3.722-4.858,7.011a15.819,15.819,0,0,0,2.332,7.583,4.321,4.321,0,0,0,3.707,2.02,3.7,3.7,0,0,0,3.663-2.508c.726-2.206-2.749-3.151-3.471-.957a.4.4,0,0,1,.208-.231c-.275.119.077.037-.233.089.258-.044-.174.007-.26.007-.011,0-.308-.027-.122,0s-.281-.077-.267-.075c.194.014.038-.04.116.067-.084-.116-.214-.212-.3-.324a5.879,5.879,0,0,1-.715-1.327,11.781,11.781,0,0,1-1.063-5.476,4.114,4.114,0,0,1,1.332-1.874,9.974,9.974,0,0,1,3.113-1.361,19.927,19.927,0,0,1,3.305-.765,9.479,9.479,0,0,1,1.147-.077,4.633,4.633,0,0,0,1.78-.4,6.9,6.9,0,0,1,1.816-.554,2.7,2.7,0,0,1,.639.037c.166.035-.008-.018-.043-.031.126.046.248.113.368.171a9.6,9.6,0,0,0,3.231,1.222,1.814,1.814,0,0,0,1.8-1.8,1.837,1.837,0,0,0-1.8-1.8Z"/><path class="c" d="M183.6,85.966a37.151,37.151,0,0,0,.936,4.26,9.118,9.118,0,0,0,1.87,4.008,4.414,4.414,0,0,0,5.34.471,4.486,4.486,0,0,0,1.845-2.3,5.711,5.711,0,0,0,.187-2.44,42.852,42.852,0,0,0-1.131-5.829,1.815,1.815,0,0,0-2.214-1.257,1.839,1.839,0,0,0-1.258,2.214c.326,1.395.688,2.784.918,4.2.015.092.027.185.043.277.036.211-.022-.128-.017-.137-.047.083.05.433.059.533a9.232,9.232,0,0,1,.042,1c0,.076-.008.154-.008.231,0,.238-.094-.034.025-.157a1.161,1.161,0,0,0-.1.361c-.031.214.184-.311.054-.138a1.772,1.772,0,0,0-.106.185c-.017.03-.088.1-.09.133.165-.2.2-.258.112-.156-.036.041-.073.08-.112.117a1.275,1.275,0,0,0-.121.11c-.132.169.3-.169.1-.083-.012.006-.341.18-.342.192,0-.112.369-.115.109-.056-.07.016-.156.039-.226.062-.283.093.142-.068.12,0-.009.028-.286.015-.313.015-.086,0-.172-.01-.258-.011-.212,0,.146,0,.145.02s-.241-.06-.273-.062c-.23-.011.156.046.2.1a.866.866,0,0,0-.146-.079c-.2-.142.159.12.157.132a2.235,2.235,0,0,0-.254-.25c-.191-.191.1.114.106.143a.991.991,0,0,0-.11-.161c-.064-.1-.123-.2-.179-.3-.067-.124-.119-.255-.186-.377-.091-.165.075.186.075.182a2.12,2.12,0,0,0-.12-.3c-.191-.515-.341-1.045-.483-1.576a37.223,37.223,0,0,1-.923-4.213,1.806,1.806,0,0,0-2.214-1.258,1.858,1.858,0,0,0-1.257,2.215Z"/><path class="c" d="M195.743,82.538a36.223,36.223,0,0,0-.191,5.957c-.007,1.018-.035,2.032-.131,3.045-.036.381.069-.382.013-.09-.015.078-.025.157-.04.235-.032.169-.088.33-.124.5-.065.293.177-.376.088-.2a1.1,1.1,0,0,1-.07.12c-.016.023.339-.479.18-.246a.6.6,0,0,1-.087.08c-.116.106.2-.152.2-.153-.046,0-.156.1-.2.122s-.088.043-.128.069c-.2.128.076-.053.149-.055a2.256,2.256,0,0,0-.413.139c-.066.019-.407.046-.443.1.009-.013.384-.027.193-.028-.1,0-.193.016-.289.017-.058,0-.116,0-.173,0-.282.006-.068-.113.079.028a1.374,1.374,0,0,0-.385-.091c-.217-.02.3.181.12.058a1,1,0,0,0-.194-.108c-.177-.062.16.078.139.116a1.244,1.244,0,0,1-.124-.117c-.091-.1-.059-.049.094.142a1.846,1.846,0,0,0-2.462-.646,1.818,1.818,0,0,0-.646,2.463,4.041,4.041,0,0,0,2.279,1.609,5.575,5.575,0,0,0,2.5,0,3.9,3.9,0,0,0,3.06-2.427,11.236,11.236,0,0,0,.389-3.1c.046-1.24.032-2.482.03-3.723,0-.625,0-1.251.016-1.876.007-.262.017-.524.036-.785.007-.1.017-.2.025-.3.034-.415-.078.477-.013.108a1.843,1.843,0,0,0-1.257-2.214,1.823,1.823,0,0,0-2.215,1.257Z"/><path class="c" d="M191.566,103.67c2.14-1.147,2.338-3.316,3.37-5.255a9.057,9.057,0,0,1,3.42-3.041,9.472,9.472,0,0,0,3.141-2.121,5.837,5.837,0,0,0,1.465-3.66,5.536,5.536,0,0,0-1.11-3.245c-.54-.728-1.476-1.1-1.855-1.844a3.141,3.141,0,0,1-.118-2.107c.225-.732.681-.69,1.461-.493,2.165.549,4.318,2.811,5.619,4.558a4.049,4.049,0,0,1,.827,3.141,26.042,26.042,0,0,1-.747,4.02,15.833,15.833,0,0,1-3.395,6.242c-2.016,2.076-4.808,2.957-5.865,5.881-1.212,3.348-.886,7.1-1.566,10.559-.446,2.263,3.023,3.232,3.471.957.655-3.328.369-6.942,1.439-10.177.457-1.379,1.629-1.989,2.758-2.786a14.246,14.246,0,0,0,2.932-2.6,20.926,20.926,0,0,0,3.749-7.294,34.973,34.973,0,0,0,.695-3.846,7.788,7.788,0,0,0-.433-4.6,16.72,16.72,0,0,0-5.5-6.007c-2.077-1.49-5.421-2.73-7.612-.734-1.613,1.47-1.853,4.126-1.229,6.116a4.69,4.69,0,0,0,1.667,2.529c.934.63,1.575,1.43.939,2.577-.712,1.283-2.332,1.618-3.5,2.4a13.814,13.814,0,0,0-2.745,2.377,7.428,7.428,0,0,0-1.216,1.809c-.49,1.09-.741,2.915-1.883,3.527-2.043,1.095-.227,4.2,1.817,3.109Z"/><path class="a" d="M305.878,234.749c-.063,5.5,1.557,10.915,2.644,16.305s1.633,10.329-.515,15.391a11.311,11.311,0,0,1-1.6,2.741c-1.458,1.792-4.361,3.447-6.7,1.647-.367-.282-.578-1.461-.208-2.9,1.343-5.2,1.064-4.909,1.4-10.058a16.393,16.393,0,0,0-.246-4.465,13.538,13.538,0,0,0-1.828,1.889c-.384.422-1.193,1.149-1.731,1.635a1.667,1.667,0,0,1-2.769-1.411c.487-4.485,1.416-10.782,2.507-16.03l.776-4.855"/><path class="a" d="M272.538,125.81c-1.1,3.548-6.633,11.014-19.771,11.014-12.3,0-18.465-7.753-19.286-11.342l-5.129,1.231c-3.39,1.47-5.976,2.428-10.053,4.514-5.757,3.259-11.869,10.5-19.081,11.694.012-6.77-.594-17,.258-25.883-4.346-.357-18.1-1.471-20.656-1.459-1.183,6.967-4.511,31.337-2.049,46.932.671,4.256,3.341,7.8,5.914,8.478,4.668,1.235,12.024.062,16.43-1.512,5.521-1.971,11.507-3.477,14.465-4.4l1-.234c-.712,19.713-.472,63.014.235,67.255,15.372,0,64.312-.547,75.787-.547l.041,1.991,4.051-.076,13.392-.821A1.661,1.661,0,0,0,309.609,231c.67-11.407.435-56.758-.643-70.634-.266-3.428-2.679-11.956-4.33-14.972-3.259-5.955-8.256-9.161-13.7-12.257a93.549,93.549,0,0,0-17.655-7.65Z"/><path class="g" d="M220.008,295.019c-2.244-20.145-3.793-50.046-3.847-62.919,15.91-.027,58.941-.5,72.624-.543.027,1.091.046,1.838.046,1.838.387,15.12-.433,38.646-2.348,61.624"/><path class="c" d="M238.266,116.508c-.042.442-.086.884-.139,1.325-.009.079-.1.755-.037.3-.021.148-.042.3-.065.443q-.129.816-.258,1.63c-.077.478-.245.923-.341,1.39.1-.484.087-.189-.013-.006-.051.095-.128.185-.172.282-.078.112-.032.056.137-.17-.041.052-.084.1-.129.151-.094.1-.2.194-.3.289q-.217.178.1-.077c-.064.045-.129.088-.195.13-.106.066-.214.128-.325.186-.078.041-.158.08-.239.117q.327-.131.036-.015l-.2.076-.936.35c-.73.273-1.468.533-2.186.834a1.988,1.988,0,0,0-1.076.828,1.8,1.8,0,0,0,2.033,2.644c1.16-.488,2.365-.863,3.528-1.342a5.848,5.848,0,0,0,2.988-2.384,7.3,7.3,0,0,0,.808-2.622c.219-1.452.445-2.9.582-4.362a1.806,1.806,0,0,0-1.8-1.8,1.848,1.848,0,0,0-1.8,1.8Z"/><path class="c" d="M263.707,117.242c.149,1.285.356,2.56.557,3.838a6.307,6.307,0,0,0,.944,2.671,5.673,5.673,0,0,0,1.428,1.417,4.812,4.812,0,0,0,.668.393,4.194,4.194,0,0,0,1.079.454c-.074-.012-.563-.243-.2-.08.134.059.267.12.4.181q.513.233,1.026.468c.672.308,1.341.622,2.017.921a1.848,1.848,0,0,0,2.463-.645,1.821,1.821,0,0,0-.646-2.463c-1.146-.508-2.277-1.05-3.421-1.561l-.218-.095c-.155-.067-.311-.135-.468-.2-.056-.022-.4-.178-.191-.071s-.193-.1-.252-.135c-.1-.057-.206-.117-.305-.182-.046-.03-.091-.068-.139-.095-.158-.091.147.106.151.117-.023-.071-.2-.183-.261-.241s-.267-.32-.082-.072-.009-.021-.048-.083c-.048-.077-.093-.156-.136-.237-.021-.04-.039-.081-.06-.121-.113-.213.068.14.075.182-.066-.369-.225-.732-.294-1.107-.081-.448-.137-.9-.212-1.349-.055-.334-.112-.666-.162-1-.016-.11-.078-.588-.036-.246-.027-.221-.055-.441-.081-.661a1.844,1.844,0,0,0-1.8-1.8c-.882.039-1.915.8-1.8,1.8Z"/><path class="c" d="M295.1,239.02a152.023,152.023,0,0,0-2.533,16.16,3.493,3.493,0,0,0,4.014,3.921c2.324-.4,3.64-3.044,5.349-4.413l-3.008-.795a25.246,25.246,0,0,1,.1,5.265c-.078,1.374-.1,2.9-.307,4.165-.572,3.536-3.088,9.037,2.258,9.989,4.57.814,7.749-3.508,9.114-7.255,1.688-4.633,1.285-9.58.4-14.334-1.055-5.642-2.819-11.184-2.8-16.974a1.8,1.8,0,0,0-3.6,0,59.255,59.255,0,0,0,1.906,13.083c.923,4.115,1.927,8.312,1.645,12.561-.209,3.157-1.394,8.192-4.888,9.284a2.334,2.334,0,0,1-1.051.113c-.154-.024-.319-.116-.471-.123-.373-.017-.175-.48-.075.131a6.759,6.759,0,0,1,.42-2.671,33.066,33.066,0,0,0,.8-4.124,38.253,38.253,0,0,0,.024-10.067c-.221-1.49-2.091-1.529-3.009-.794a20.276,20.276,0,0,0-1.922,1.988c-.425.447-1.3.947-1.579,1.462.047-.085.27-.013.239.084a5.369,5.369,0,0,0,.085-.852q.151-1.329.326-2.655c.537-4.085,1.207-8.157,2.039-12.192.466-2.261-3-3.228-3.472-.957Z"/><path class="c" d="M214.379,234.016c.218,15.8,1.212,31.619,2.522,47.36.379,4.553.8,9.1,1.307,13.643a1.856,1.856,0,0,0,1.8,1.8,1.809,1.809,0,0,0,1.8-1.8c-1.847-16.653-2.88-33.424-3.526-50.164-.139-3.612-.253-7.225-.3-10.839-.033-2.315-3.633-2.321-3.6,0Z"/><path class="c" d="M287.031,233.4c.386,15.445-.273,30.936-1.237,46.349q-.477,7.644-1.111,15.275c-.192,2.309,3.409,2.3,3.6,0,1.391-16.765,2.3-33.594,2.429-50.419.029-3.735.012-7.471-.081-11.2-.058-2.313-3.658-2.322-3.6,0Z"/><path class="c" d="M251.662,270.174c-.767,8.5-.213,17.064-.205,25.578a1.8,1.8,0,0,0,3.6,0c-.008-8.514-.562-17.083.205-25.578.208-2.306-3.394-2.292-3.6,0Z"/><path class="c" d="M272.805,127.218a77.835,77.835,0,0,1,16.919,7.3c5.3,2.975,10.56,6.406,13.451,11.958a36.079,36.079,0,0,1,2.41,6.728,43.842,43.842,0,0,1,1.543,6.76c.394,3.4.412,6.871.528,10.285.637,18.716.845,37.519.331,56.241q-.035,1.248-.082,2.5a7.068,7.068,0,0,0-.076,1.856c.107.206-.107.029.246.012-.046,0-.094,0-.14.008-.175.017-.352.022-.527.033l-2.366.145-10.352.634c-2.3.141-2.318,3.742,0,3.6l9.356-.573c1.318-.081,2.646-.122,3.961-.243,2.616-.242,3.352-2.235,3.459-4.546.39-8.409.332-16.849.316-25.263-.021-10.513-.13-21.028-.436-31.537-.112-3.845-.238-7.693-.493-11.532a49.636,49.636,0,0,0-3.4-14.225c-2.246-5.877-6.631-10.2-11.863-13.54a94.5,94.5,0,0,0-17.9-8.769c-1.291-.48-2.6-.925-3.924-1.3a1.8,1.8,0,0,0-.957,3.472Z"/><path class="c" d="M214.811,233.9c9.679,0,19.359-.1,29.038-.184q17.269-.147,34.537-.3c4.07-.031,8.141-.066,12.212-.067a1.8,1.8,0,0,0,0-3.6c-8.753,0-17.506.108-26.259.184q-17.656.155-35.314.3c-4.738.033-9.476.067-14.214.067a1.8,1.8,0,0,0,0,3.6Z"/><path class="c" d="M288.452,157.054c.033.2.138.981.068.423.043.34.083.681.119,1.021.086.805.156,1.612.218,2.419.164,2.11.278,4.224.377,6.337.263,5.617.405,11.24.5,16.862.211,11.969.27,23.958-.117,35.925-.075,2.327-.168,4.655-.327,6.979-.059.864-.126,1.728-.219,2.59-.018.173-.04.345-.058.518-.059.542.026-.146-.011.093-.043.286-.087.571-.144.855-.453,2.262,3.016,3.23,3.472.957a64.244,64.244,0,0,0,.819-10.068c.213-5.492.285-10.989.316-16.485.069-12.219-.047-24.453-.565-36.662a106.532,106.532,0,0,0-.98-12.721,1.816,1.816,0,0,0-2.215-1.257,1.841,1.841,0,0,0-1.257,2.214Z"/><path class="c" d="M213.2,157.418c-.376,3.881-.449,7.8-.55,11.7-.153,5.869-.222,11.74-.263,17.61-.082,11.916-.073,23.838.191,35.751a74.114,74.114,0,0,0,.5,10.105,1.815,1.815,0,0,0,2.214,1.257,1.841,1.841,0,0,0,1.257-2.214c-.058-.36.042.541,0-.011-.017-.231-.043-.462-.06-.693-.046-.608-.077-1.218-.106-1.827-.084-1.781-.135-3.564-.179-5.347-.131-5.3-.187-10.6-.222-15.9-.082-12.289-.06-24.583.219-36.869.1-4.514.16-9.059.6-13.556.224-2.305-3.378-2.289-3.6,0Z"/><path class="c" d="M197.675,117.041c-.8,8.616-.254,17.248-.257,25.88a1.827,1.827,0,0,0,2.278,1.736c5.67-1.018,10.219-5,14.607-8.443a37.355,37.355,0,0,1,6.959-4.452c2.625-1.26,5.327-2.341,8-3.5a1.812,1.812,0,0,0,.646-2.462,1.845,1.845,0,0,0-2.463-.646c-2.541,1.1-5.112,2.126-7.615,3.312a38.555,38.555,0,0,0-7.2,4.517c-4.21,3.262-8.472,7.225-13.891,8.2l2.279,1.735c0-8.632-.544-17.264.257-25.88.215-2.3-3.386-2.291-3.6,0Z"/><path class="c" d="M199.247,115.219q-5.5-.45-11-.866c-3.128-.233-6.29-.572-9.43-.574a1.817,1.817,0,0,0-1.735,1.322,210.546,210.546,0,0,0-2.986,32.05c-.044,3.227.01,6.458.241,9.678.227,3.169.43,6.535,1.669,9.491,1.152,2.748,3.207,5.539,6.2,6.405,3.122.9,6.63.658,9.805.234a64.445,64.445,0,0,0,11.1-2.928c3.626-1.155,7.313-2.1,10.948-3.216,2.208-.68,1.266-4.156-.957-3.471-2.91.9-5.859,1.662-8.775,2.542-3.216.972-6.354,2.244-9.64,2.97a31.3,31.3,0,0,1-9.351.769,6.514,6.514,0,0,1-3.231-.892,8.427,8.427,0,0,1-2.576-3.307c-1.257-2.61-1.384-5.75-1.588-8.6-.209-2.908-.272-5.827-.251-8.742.045-6.082.455-12.16,1.063-18.21.465-4.621,1.03-9.239,1.8-13.819l-1.736,1.321c3.14,0,6.3.341,9.43.574q5.5.411,11,.866c2.309.189,2.3-3.412,0-3.6Z"/><path class="c" d="M270.8,125.332c-.053.165-.111.327-.171.489-.068.183.076-.135-.108.237a13.485,13.485,0,0,1-.69,1.245,12.381,12.381,0,0,1-1.986,2.419,18.006,18.006,0,0,1-7.64,4.313c-6.955,2.017-15.5,1.242-21.146-3.638a15.274,15.274,0,0,1-2.63-2.871,13,13,0,0,1-.837-1.435c-.231-.458-.036.02-.187-.438-.07-.215-.138-.429-.191-.649-.546-2.251-4.018-1.3-3.472.957a13.822,13.822,0,0,0,4.028,6.3,22.554,22.554,0,0,0,9.73,5.425c7.98,2.172,17.616.848,24.018-4.623a15.381,15.381,0,0,0,4.753-6.777c.709-2.212-2.766-3.159-3.471-.957Z"/><path class="c" d="M253.631,114.311c.15,0,.3.015.447.027.549.047-.193-.03.168.021.4.058.806.125,1.209.182a14.54,14.54,0,0,0,2.937.21,6.138,6.138,0,0,0,4.926-2.714,6.967,6.967,0,0,0,.662-5.548,5.592,5.592,0,0,0-4.634-4.074,6.673,6.673,0,0,0-3.075.224,21.948,21.948,0,0,1-2.361,1.051,2.805,2.805,0,0,1-1.762-.549,7.2,7.2,0,0,0-3.183-.816,5.671,5.671,0,0,0-5.278,3.125,7.424,7.424,0,0,0-.042,6.092,5.748,5.748,0,0,0,5.064,3.572,11.44,11.44,0,0,0,2.949-.36c.426-.095.849-.2,1.273-.306l.457-.1c.107-.022.214-.042.322-.06-.24.029-.267.038-.079.027,2.31-.085,2.321-3.685,0-3.6a23.874,23.874,0,0,0-3.509.693c-1.052.2-1.975.268-2.692-.521a3.649,3.649,0,0,1-.8-2.93,2.18,2.18,0,0,1,2.332-2.028c1.376.007,2.44,1.069,3.778,1.3a4.931,4.931,0,0,0,2.355-.13c.751-.243,1.392-.706,2.121-.984a2.62,2.62,0,0,1,2.927.564,3.447,3.447,0,0,1,.283,3.183c-1.052,2.369-4.775.9-6.8.853C251.314,110.655,251.315,114.255,253.631,114.311Z"/><path class="c" d="M244.9,89.1a26.566,26.566,0,0,0-4.068-.172,1.857,1.857,0,0,0-1.272.527,1.8,1.8,0,0,0,0,2.546,1.871,1.871,0,0,0,1.272.527c.669,0,1.337,0,2.006.015a14.654,14.654,0,0,1,1.5.08l-.479-.064.088.013a1.367,1.367,0,0,0,.717.032,1.339,1.339,0,0,0,.67-.214,1.8,1.8,0,0,0,.645-2.463A1.742,1.742,0,0,0,244.9,89.1Z"/><path class="c" d="M262.727,92.9l.087-.013-.478.065a14.1,14.1,0,0,1,1.5-.08c.668-.014,1.337-.016,2-.016a1.858,1.858,0,0,0,1.273-.527,1.8,1.8,0,0,0,0-2.546,1.871,1.871,0,0,0-1.273-.527,26.553,26.553,0,0,0-4.067.172,1.808,1.808,0,0,0-1.076.828,1.841,1.841,0,0,0-.181,1.387,1.822,1.822,0,0,0,.827,1.075l.43.182a1.807,1.807,0,0,0,.957,0Z"/><path class="c" d="M263.645,101.7a18.032,18.032,0,0,1,1.858,2.837l-.182-.43a5.731,5.731,0,0,1,.378,1.41,1.793,1.793,0,0,0,.827,1.076,1.8,1.8,0,0,0,2.463-.646l.181-.43a1.807,1.807,0,0,0,0-.957,6.913,6.913,0,0,0-1-2.675c-.433-.694-.961-1.324-1.419-2a1.915,1.915,0,0,0-1.075-.827,1.84,1.84,0,0,0-1.387.181,1.8,1.8,0,0,0-.646,2.463Z"/><path class="c" d="M252.379,95.974a22.489,22.489,0,0,1,.528,2.42l-.064-.479a1.437,1.437,0,0,1,.009.334l.065-.479a.876.876,0,0,1-.037.151l.181-.43a.53.53,0,0,1-.053.1l.282-.364a.582.582,0,0,1-.079.078l.364-.282a1.533,1.533,0,0,1-.192.1l.43-.182a1.394,1.394,0,0,1-.323.1l.479-.065a1.28,1.28,0,0,1-.3,0l.478.064c-.114-.016-.226-.044-.341-.059a2.026,2.026,0,0,0-1.387.181,1.839,1.839,0,0,0-.827,1.076,1.82,1.82,0,0,0,.182,1.387l.281.364a1.8,1.8,0,0,0,.794.463c.31.042.611.119.926.133a3.045,3.045,0,0,0,1.428-.349,2.182,2.182,0,0,0,1.174-1.424,3.32,3.32,0,0,0-.012-1.471c-.131-.78-.311-1.552-.512-2.317a1.8,1.8,0,0,0-2.214-1.257,1.821,1.821,0,0,0-1.076.827,1.893,1.893,0,0,0-.181,1.387Z"/><path class="a" d="M120.881,233.4c-1.326,13.878-2.391,38.885-3.746,61.4l-63.455.487c-.01-.163-2.848-45.056-3.993-59.96l4.476-21.933h60.444Z"/><path class="a" d="M86.386,125.577c.067.1.17.247.3.423l-4.726.008a4.483,4.483,0,0,0,.384-.559.87.87,0,0,0,.126-.615c-.073-.236-.324-.361-.549-.463a37.706,37.706,0,0,1-10.884-7.586,18.086,18.086,0,0,0-3.441,4.472c1.066,3.471,2.765,8.806,4.852,14.784,4.078,11.685,9.667,24.725,12.675,31.221l.722,1.793a276.545,276.545,0,0,0,11.1-30.871c1.888-6.335,3.343-13.559,4.008-17.105a17.922,17.922,0,0,0-3.34-4.294,37.706,37.706,0,0,1-10.884,7.586c-.225.1-.476.227-.549.463a.87.87,0,0,0,.126.615A1.084,1.084,0,0,0,86.386,125.577Z"/><path class="a" d="M104.589,125.951c-.417-.183-3.5-1.61-3.689-1.676-2.784-1.006-2.674-2.8-3.024-4.8a46.042,46.042,0,0,1-.617-6.714s-.011-.687-.026-1.6c5.277-3.36,9.337-10.24,10.114-12.351.132-.4.4-1.152.639-2.046l.5-.077a6.253,6.253,0,0,0,2.91-1.312,9.439,9.439,0,0,0,2.44-3.2,14.845,14.845,0,0,0,1.514-7.871,4.941,4.941,0,0,0-.519-1.993,3.5,3.5,0,0,0-2.519-1.676,3.711,3.711,0,0,0-2.97.869s.849-20.375-24.5-20.375c-16.056,0-22.155,8.119-24.279,14.117-.033.092-.064.183-.095.274a17.442,17.442,0,0,0-.92,4.507,13.882,13.882,0,0,0-.013,1.477,3.709,3.709,0,0,0-2.969-.869,3.5,3.5,0,0,0-2.52,1.676,4.957,4.957,0,0,0-.519,1.993,14.855,14.855,0,0,0,1.514,7.871,9.429,9.429,0,0,0,2.441,3.2,6.245,6.245,0,0,0,2.909,1.312l.949.145a25.248,25.248,0,0,0,4.812,9.394,22.238,22.238,0,0,0,6.212,5.3,53.292,53.292,0,0,1-.617,7.95c-.351,2-.241,3.792-3.025,4.8-.184.066-1.555.55-1.9.7,0,0-.556,12.422,17.429,12.422S104.589,125.951,104.589,125.951Z"/><path class="e" d="M104.962,74.349a37.817,37.817,0,0,1,4.252,7.274,3.687,3.687,0,0,1,3.1-.99,3.306,3.306,0,0,1,.646.163c1.846-4.74,2.116-11.609-.214-18.125-1.639-4.581-5.724-9.382-8.625-10.719L99.928,48.94c-3.569-4.889-8.964-7.465-16.577-7.7-7.131-.218-15.346,1.222-21.591,7.507l2.01,2.029c-3.68,2.363-6.561,6.79-7.9,10.717-1.6,4.707-2.081,11.406-.178,19.321l.014.057a3.5,3.5,0,0,1,.853-.24,3.669,3.669,0,0,1,3.177,1.074c7.183-6.865,13.439-10.941,19.75-15.9a16.367,16.367,0,0,0,1.7,3.91c.428.174,5.127-2.777,8.4-4.8l5.157,1.357a19.241,19.241,0,0,1,6.047,3.541A28.609,28.609,0,0,1,104.962,74.349Z"/><path class="c" d="M110.613,82.775a1.847,1.847,0,0,1,2.6.343,4.028,4.028,0,0,1,.382,2.049,12.339,12.339,0,0,1-.172,2.539c-.55,3.015-2.064,6.644-5.419,7.245a1.817,1.817,0,0,0-1.258,2.214,1.841,1.841,0,0,0,2.215,1.258c5.273-.946,7.791-6.891,8.188-11.67.206-2.486-.021-5.286-2.167-6.89a5.54,5.54,0,0,0-6.917.366,1.815,1.815,0,0,0,0,2.546,1.839,1.839,0,0,0,2.546,0Z"/><path class="c" d="M106.646,93.924a13.851,13.851,0,0,1-.81,3.738c-.073.223-.159.444-.224.67-.035.119-.179.416.037-.073-.117.265-.239.526-.369.785a31.939,31.939,0,0,1-2.743,4.41c-2.371,3.251-5.6,6.693-9.636,7.64-2.255.529-1.3,4,.957,3.471,4.931-1.157,8.752-5.184,11.653-9.111,2.5-3.387,4.561-7.227,4.735-11.53.094-2.317-3.506-2.313-3.6,0Z"/><path class="c" d="M60.8,80.229a5.543,5.543,0,0,0-6.917-.366c-2.148,1.6-2.373,4.408-2.167,6.89.4,4.779,2.916,10.724,8.189,11.67a1.851,1.851,0,0,0,2.214-1.258,1.816,1.816,0,0,0-1.257-2.214c-3.355-.6-4.87-4.23-5.42-7.245a12.237,12.237,0,0,1-.174-2.395,4.677,4.677,0,0,1,.324-2.094,1.833,1.833,0,0,1,2.663-.442,1.849,1.849,0,0,0,2.545,0,1.814,1.814,0,0,0,0-2.546Z"/><path class="c" d="M58.8,93.749a29,29,0,0,0,6.187,13.884,20.752,20.752,0,0,0,13.544,7.683,1.811,1.811,0,0,0,1.8-1.8,1.842,1.842,0,0,0-1.8-1.8c-4.575-.494-8.389-3.447-11.226-6.9A25.7,25.7,0,0,1,62.27,92.792a1.815,1.815,0,0,0-2.214-1.257A1.84,1.84,0,0,0,58.8,93.749Z"/><path class="c" d="M103.208,53.506c3.9,1.9,6.823,6.545,8.1,10.539a25.425,25.425,0,0,1,.238,15.358c-.7,2.212,2.769,3.159,3.471.957a28.858,28.858,0,0,0-.386-17.72,24.741,24.741,0,0,0-4.085-7.35,16.821,16.821,0,0,0-5.523-4.892c-2.074-1.011-3.9,2.093-1.817,3.108Z"/><path class="c" d="M65.568,47.886C59.825,50.1,55.81,55.737,53.992,61.455c-2.03,6.384-1.547,13.407-.035,19.84.53,2.254,4,1.3,3.472-.957-1.325-5.634-1.771-11.7-.147-17.325,1.332-4.617,4.564-9.853,9.243-11.655,2.139-.825,1.21-4.307-.957-3.472Z"/><path class="c" d="M101.482,48.032c-4.645-6.251-11.744-8.585-19.329-8.61-8.011-.026-15.876,2.327-21.666,8.055-1.65,1.631.9,4.177,2.546,2.545,5.031-4.977,11.824-6.966,18.774-7,6.273-.031,12.653,1.561,16.567,6.827a1.858,1.858,0,0,0,2.463.645,1.81,1.81,0,0,0,.645-2.462Z"/><path class="c" d="M89.317,62.974c-2.48,1.523-4.926,3.121-7.482,4.516-.228.125-.459.243-.69.364l-.166.081q-.315.142.023-.007-.573.155.727.349,1.125.726.749.179c-.008-.18-.251-.494-.329-.662a10.285,10.285,0,0,1-.926-2.465c-.256-1.487-2.067-1.532-3.009-.794C71.8,69.562,65.123,74.2,59.153,79.781c-1.7,1.586.854,4.127,2.546,2.546,5.968-5.579,12.644-10.22,19.061-15.247l-3.009-.794a14.225,14.225,0,0,0,1.389,3.537c.654,1.345,1.682,2.037,3.154,1.439,3.119-1.266,5.983-3.425,8.84-5.18,1.971-1.21.165-4.325-1.817-3.108Z"/><path class="c" d="M94.266,68.014c6.273,2.462,10.474,8.17,13.219,14.12a1.814,1.814,0,0,0,2.463.646,1.843,1.843,0,0,0,.646-2.463,38.032,38.032,0,0,0-6.04-9.3,25.587,25.587,0,0,0-4.372-3.937,23.2,23.2,0,0,0-4.959-2.534A1.813,1.813,0,0,0,93.009,65.8a1.842,1.842,0,0,0,1.257,2.214Z"/><path class="c" d="M14.5,57.816A18.6,18.6,0,0,0,.563,72.179a21.8,21.8,0,0,0,.665,12.236,19.469,19.469,0,0,0,6.7,8.652,21.683,21.683,0,0,0,21.359,2.344A20.127,20.127,0,0,0,41.013,77.8,19.9,19.9,0,0,0,37.207,65.11,20.356,20.356,0,0,0,27.4,58.234c-2.2-.748-3.141,2.728-.957,3.472a15.756,15.756,0,0,1,10.9,13.479,16.771,16.771,0,0,1-7.669,15.972,17.824,17.824,0,0,1-17.684.233A16.379,16.379,0,0,1,5.57,85.231a16.551,16.551,0,0,1-1.878-9.722,16.392,16.392,0,0,1,3.663-9.446,15.558,15.558,0,0,1,8.1-4.776c2.246-.566,1.294-4.039-.957-3.471Z"/><path class="c" d="M25.753,68.846a9.35,9.35,0,0,1,4.712,8.773,9.688,9.688,0,0,1-4.828,7.941c-5.851,3.348-14.659-.261-15.059-7.407-.222-3.977,1.26-7.737,4.907-9.61,2.061-1.059.242-4.166-1.817-3.109-4.23,2.173-6.425,6.444-6.684,11.085a12.854,12.854,0,0,0,6.1,11.775,14.265,14.265,0,0,0,12.832,1.113,13.281,13.281,0,0,0,1.657-23.67c-2.013-1.154-3.829,1.955-1.817,3.109Z"/><path class="c" d="M13.256,45.671c0,7.441-.046,14.883-.047,22.325a1.826,1.826,0,0,0,1.8,1.8c3.869,0,7.737-.106,11.605-.11a1.825,1.825,0,0,0,1.8-1.8c0-7.352-.2-14.7-.185-22.057a1.8,1.8,0,0,0-3.6,0c-.017,7.352.181,14.7.185,22.057l1.8-1.8c-3.868,0-7.736.106-11.6.11l1.8,1.8c0-7.442.046-14.884.047-22.325a1.8,1.8,0,0,0-3.6,0Z"/><path class="a" d="M12.422,115.793a16.685,16.685,0,0,1,1-3.4c1.023-2.427.863-3.828.23-6.325-.57-2.247-2.573-8.828-1.248-11.094l1.66-3.544a12.443,12.443,0,0,1-1.347-3.376c-.328-1.352-.93-3.892-.29-5.191a6.1,6.1,0,0,1,2.5-2.716,19.677,19.677,0,0,1,8.369-2.1c1.365-.519,2.585-1.165,4.089-.907.677.116,2.628,1.368,3.263,1.347a12.331,12.331,0,0,1,1.687,1.548c2.307-.337,4.88,1.744,6.726,3.658a10.544,10.544,0,0,1,2.472,3.361c.592,1.852.139,2.875-.067,4.518a15.709,15.709,0,0,1-2.114,6.217,11.516,11.516,0,0,1-3.908,4.753,17.807,17.807,0,0,0-2.957,2.292,6.962,6.962,0,0,0-1.281,3.381c-.554,2.849-.476,5.723-1.073,8.569"/><path class="c" d="M10.849,94.067a7.965,7.965,0,0,0-.605,4.63,38.779,38.779,0,0,0,1.049,5.488,24.54,24.54,0,0,1,1.053,4.638,6.836,6.836,0,0,1-.588,2.916,20.077,20.077,0,0,0-1.072,3.576c-.441,2.263,3.028,3.232,3.471.957.446-2.29,1.666-4.376,1.791-6.723a17.184,17.184,0,0,0-.9-5.233c-.421-1.584-.823-3.176-1.09-4.794a13.939,13.939,0,0,1-.2-2.289c0-.244.026-.738.042-.832a3.023,3.023,0,0,1,.157-.517c1.094-2.041-2.013-3.862-3.108-1.817Z"/><path class="c" d="M30.652,76.687c.655.056-.205-.127-.005-.047-.275-.11-.54-.256-.8-.387a11.857,11.857,0,0,0-1.721-.777c-1.63-.5-3.2.054-4.722.608a29.251,29.251,0,0,1-3.651.535,23.244,23.244,0,0,0-4.52,1.417c-2.888,1.23-5.111,3.722-4.858,7.011A15.808,15.808,0,0,0,12.7,92.63a4.321,4.321,0,0,0,3.707,2.02,3.7,3.7,0,0,0,3.663-2.508c.726-2.206-2.749-3.151-3.471-.957a.4.4,0,0,1,.208-.231c-.276.119.077.037-.233.089.258-.044-.174.007-.26.007-.011,0-.308-.027-.122,0s-.281-.077-.267-.075c.194.014.038-.04.116.067-.084-.116-.214-.212-.3-.324a5.879,5.879,0,0,1-.715-1.327,11.781,11.781,0,0,1-1.063-5.476A4.114,4.114,0,0,1,15.3,82.04a9.964,9.964,0,0,1,3.113-1.361,19.927,19.927,0,0,1,3.305-.765,9.479,9.479,0,0,1,1.147-.077,4.624,4.624,0,0,0,1.779-.4,6.915,6.915,0,0,1,1.817-.554,2.7,2.7,0,0,1,.639.037c.166.035-.008-.018-.043-.031.126.046.248.113.368.171a9.6,9.6,0,0,0,3.231,1.222,1.814,1.814,0,0,0,1.8-1.8,1.837,1.837,0,0,0-1.8-1.8Z"/><path class="c" d="M15.791,85.966a37.151,37.151,0,0,0,.936,4.26,9.118,9.118,0,0,0,1.87,4.008,4.414,4.414,0,0,0,5.34.471,4.486,4.486,0,0,0,1.845-2.3,5.711,5.711,0,0,0,.187-2.44,42.852,42.852,0,0,0-1.131-5.829,1.815,1.815,0,0,0-2.214-1.257,1.839,1.839,0,0,0-1.258,2.214c.326,1.395.688,2.784.918,4.2.015.092.027.185.043.277.036.211-.022-.128-.017-.137-.047.083.05.433.059.533a9.232,9.232,0,0,1,.042,1c0,.076-.008.154-.008.231,0,.238-.094-.034.025-.157a1.161,1.161,0,0,0-.1.361c-.031.214.184-.311.054-.138a1.772,1.772,0,0,0-.106.185c-.017.03-.088.1-.09.133.165-.2.2-.258.112-.156-.036.041-.073.08-.112.117a1.275,1.275,0,0,0-.121.11c-.132.169.3-.169.1-.083-.012.006-.341.18-.342.192,0-.112.369-.115.109-.056-.07.016-.156.039-.226.062-.283.093.142-.068.12,0-.009.028-.286.015-.313.015-.086,0-.172-.01-.259-.011-.211,0,.147,0,.146.02s-.241-.06-.273-.062c-.23-.011.156.046.2.1a.866.866,0,0,0-.146-.079c-.2-.142.159.12.157.132a2.168,2.168,0,0,0-.255-.25c-.19-.191.1.114.107.143a.991.991,0,0,0-.11-.161c-.064-.1-.123-.2-.179-.3-.067-.124-.119-.255-.186-.377-.091-.165.075.186.074.182a2,2,0,0,0-.119-.3c-.191-.515-.341-1.045-.483-1.576a37.223,37.223,0,0,1-.923-4.213,1.806,1.806,0,0,0-2.214-1.258,1.858,1.858,0,0,0-1.257,2.215Z"/><path class="c" d="M27.932,82.538a36.223,36.223,0,0,0-.191,5.957c-.007,1.018-.035,2.032-.131,3.045-.036.381.069-.382.013-.09-.015.078-.025.157-.04.235-.032.169-.088.33-.124.5-.065.293.177-.376.088-.2a1.1,1.1,0,0,1-.07.12c-.016.023.339-.479.18-.246a.6.6,0,0,1-.087.08c-.116.106.2-.152.2-.153-.046,0-.156.1-.2.122s-.088.043-.128.069c-.2.128.076-.053.149-.055a2.231,2.231,0,0,0-.413.139c-.066.019-.407.046-.443.1.009-.013.384-.027.193-.028-.1,0-.193.016-.289.017-.058,0-.116,0-.173,0-.282.006-.068-.113.079.028a1.374,1.374,0,0,0-.385-.091c-.217-.02.3.181.12.058a1,1,0,0,0-.194-.108c-.177-.062.16.078.139.116a1.244,1.244,0,0,1-.124-.117c-.091-.1-.059-.049.094.142a1.846,1.846,0,0,0-2.462-.646,1.818,1.818,0,0,0-.646,2.463A4.042,4.042,0,0,0,25.365,95.6a5.579,5.579,0,0,0,2.5,0,3.9,3.9,0,0,0,3.059-2.427,11.2,11.2,0,0,0,.39-3.1c.046-1.24.032-2.482.03-3.723,0-.625,0-1.251.016-1.876.007-.262.017-.524.036-.785.007-.1.017-.2.025-.3.034-.415-.078.477-.013.108a1.843,1.843,0,0,0-1.257-2.214,1.823,1.823,0,0,0-2.215,1.257Z"/><path class="c" d="M23.755,103.67c2.14-1.147,2.338-3.316,3.37-5.255a9.057,9.057,0,0,1,3.42-3.041,9.472,9.472,0,0,0,3.141-2.121,5.837,5.837,0,0,0,1.465-3.66,5.536,5.536,0,0,0-1.11-3.245c-.54-.728-1.476-1.1-1.855-1.844a3.141,3.141,0,0,1-.118-2.107c.225-.732.681-.69,1.461-.493,2.165.549,4.318,2.811,5.619,4.558a4.049,4.049,0,0,1,.827,3.141,26.042,26.042,0,0,1-.747,4.02,15.833,15.833,0,0,1-3.4,6.242c-2.016,2.076-4.808,2.957-5.865,5.881-1.212,3.348-.886,7.1-1.566,10.559-.446,2.263,3.023,3.232,3.471.957.655-3.328.369-6.942,1.439-10.177.457-1.379,1.629-1.989,2.758-2.786A14.272,14.272,0,0,0,39,101.7a20.926,20.926,0,0,0,3.749-7.294,34.973,34.973,0,0,0,.7-3.846,7.788,7.788,0,0,0-.433-4.6,16.72,16.72,0,0,0-5.5-6.007c-2.077-1.49-5.421-2.73-7.612-.734-1.613,1.47-1.853,4.126-1.229,6.116a4.69,4.69,0,0,0,1.667,2.529c.934.63,1.575,1.43.939,2.577-.712,1.283-2.332,1.618-3.5,2.4a13.814,13.814,0,0,0-2.745,2.377,7.428,7.428,0,0,0-1.216,1.809c-.49,1.09-.741,2.915-1.883,3.527-2.043,1.095-.227,4.2,1.817,3.109Z"/><path class="a" d="M136.288,234.71a36.832,36.832,0,0,0,3.626,16.137,11.519,11.519,0,0,1,1.332,3.338,8.114,8.114,0,0,1-1,4.64,12.292,12.292,0,0,1-4.128,5.126,6.452,6.452,0,0,1-6.331.593l-.349-7.089a3.333,3.333,0,0,1-2.054.337,3.449,3.449,0,0,1-2.741-2.627,6.152,6.152,0,0,1-.061-1.616,33.111,33.111,0,0,1,.881-6.017l1.853-13.037"/><path class="e" d="M117.106,295.274c.334-6.778.814-13.226,1.018-16.7.075-1.259.852-2.222,3.068-2.206,4.565.034,12.777.216,17.1.417a1.043,1.043,0,0,1,.993,1.043c.012,2.291.051,9.159.091,17.425Z"/><path class="c" d="M47.887,235.326c1.187,15.48,2.187,30.976,3.162,46.47q.425,6.744.831,13.49c.137,2.3,3.738,2.318,3.6,0q-1.447-24.3-3.16-48.594-.4-5.685-.833-11.366c-.176-2.295-3.778-2.314-3.6,0Z"/><path class="c" d="M119.081,233.4c-1.458,15.355-2.04,30.8-2.881,46.2q-.415,7.6-.865,15.206c-.139,2.314,3.461,2.306,3.6,0,1.014-16.887,1.745-33.793,2.9-50.672.244-3.581.511-7.16.85-10.732.219-2.306-3.382-2.29-3.6,0Z"/><path class="c" d="M83.712,270.174c-.745,8.267-.386,16.683-.3,24.97.025,2.316,3.625,2.321,3.6,0-.087-8.287-.446-16.7.3-24.97.208-2.306-3.393-2.292-3.6,0Z"/><path class="c" d="M128.874,266.1c6.787,3.177,13.512-3.915,14.179-10.4a9.034,9.034,0,0,0-1.22-5.043,34.121,34.121,0,0,1-2.054-4.894,39.009,39.009,0,0,1-1.691-11.053c-.049-2.314-3.649-2.322-3.6,0a41.6,41.6,0,0,0,4.327,17.944,4.881,4.881,0,0,1,.425,3.849,13.313,13.313,0,0,1-1.931,3.8c-1.418,1.988-4.108,3.863-6.618,2.689-2.086-.976-3.916,2.126-1.817,3.108Z"/><path class="c" d="M123.722,247.053a36.208,36.208,0,0,0-.876,5.517c-.14,1.664-.19,3.375.833,4.8a5.218,5.218,0,0,0,4.294,2.265,5.357,5.357,0,0,0,4.4-2.535,1.817,1.817,0,0,0-.646-2.463,1.837,1.837,0,0,0-2.462.646c-.073.116-.314.329-.07.116a2.511,2.511,0,0,0-.262.264c-.144.171.308-.179-.048.037-.1.064-.223.118-.322.188-.158.114.265-.07-.049.025-.144.044-.285.082-.431.118-.33.08.165.022-.038,0-.119-.012-.251,0-.372,0,.234,0,.176.035-.029-.014-.116-.028-.228-.074-.344-.1.355.087.026.006-.09-.06-.041-.023-.385-.235-.176-.1s-.109-.1-.149-.136c-.087-.083-.162-.176-.246-.262-.138-.142.14.246-.017-.041-.069-.127-.141-.248-.2-.378.224.453-.093-.475-.037-.126a4.75,4.75,0,0,1-.023-.9c.023-.676.082-1.352.151-2.025.017-.163.035-.326.054-.488,0,.01.074-.571.037-.3.045-.325.1-.648.152-.971q.183-1.065.44-2.115a1.8,1.8,0,0,0-3.471-.957Z"/><path class="c" d="M141.171,294.158q-.038-7.905-.088-15.809c-.008-1.4-.5-2.778-1.982-3.226a15.089,15.089,0,0,0-3.684-.258q-4.314-.153-8.629-.232-2.181-.042-4.363-.063a6.669,6.669,0,0,0-2.162.156,2.781,2.781,0,0,0-1.851,2.161,1.859,1.859,0,0,0,1.257,2.214,1.813,1.813,0,0,0,2.214-1.257c.049-.326.142-.315-.328.043-.663.5-.39.2-.15.277a2.771,2.771,0,0,0,.669,0q.856.006,1.712.017,1.788.022,3.575.06,3.7.077,7.407.2a21.9,21.9,0,0,0,3,.114c.09-.01.284.019.291,0-.016.034-.568-.746-.582-.739a1.928,1.928,0,0,0,0,.339,5.958,5.958,0,0,0,0,.886l.033,5.487q.028,4.81.051,9.623c.012,2.316,3.612,2.321,3.6,0Z"/><path class="a" d="M124.566,228.294c.262,2.64.518,5.349.772,8.283-1.614.167,8.728-.9,13.408-1.636-.067-1.334-.238-4.085-.45-7.382"/><path class="g" d="M30.7,117.019c-4.6-.377-17.13-1.452-19.641-1.44-1.183,6.967-5.3,30.552-2.835,46.147.672,4.256,3.342,7.8,5.915,8.478,4.667,1.235,12.023.062,16.43-1.512,7.947-2.838,19.452-9.037,16.625-5.784.965,8.661,2.421,30.355,2.627,33.777.229,3.784-.378,7.558-.772,11.329-1.356,12.971-2.341,20.957-3.371,34.069,5.7,1.2,22.132,1.826,27.564-.607,8.423-3.773,13.894-34.381,11.709-28.257,2.087,11.943,6.345,26.642,12.024,28.717,5.788,2.116,22.783,1.623,28.836.389-.389-4.956-.769-9.178-1.158-13.2l.512-.058,13.5-1.53a2.032,2.032,0,0,0,1.782-2.12c-.083-1.745-.091-3.229-.335-8.229-1.125-23.126-2.715-47.62-3.839-70-.262-5.206-1.2-9.2-6.355-13.314-1.207-.963-2.9-1.237-4.258-1.975A214.461,214.461,0,0,0,102.2,120.546s-.467-.086-1.112-.208c-.581,3.188-2.112,11.031-4.142,17.846A277.094,277.094,0,0,1,85.9,168.94c-.479-1.047-.772-1.678-.772-1.678-3.008-6.5-8.6-19.536-12.675-31.221C70.3,129.876,68.558,124.4,67.5,120.955l-.39.162a219.6,219.6,0,0,0-21.735,10.006c-5.575,3.5-11.622,11.287-15.921,13.129.013-6.77.629-18.328,1.481-27.211"/><path class="c" d="M70.557,112.22c-.028,1.529-.121,3.059-.269,4.581-.075.775-.134,1.283-.225,1.855s-.172,1.13-.269,1.693c-.042.246-.089.492-.153.734-.034.129-.079.254-.115.382-.087.306.126-.15.005,0a1.964,1.964,0,0,0-.2.347c-.087.171.224-.212-.009.019-.1.1-.2.209-.313.307.272-.246-.1.063-.158.1a20.9,20.9,0,0,1-2.513,1,1.859,1.859,0,0,0-1.258,2.214,1.812,1.812,0,0,0,2.215,1.257,23.433,23.433,0,0,0,3.373-1.367,5.491,5.491,0,0,0,2.517-3.627,50.42,50.42,0,0,0,.968-9.492,1.8,1.8,0,0,0-3.6,0Z"/><path class="c" d="M95.459,112.763a49.062,49.062,0,0,0,.577,6.561,10.673,10.673,0,0,0,1.183,4.37,5.414,5.414,0,0,0,2.107,1.853c.29.144.591.267.892.386.654.259-.3-.153-.109-.055s.371.167.555.25c1.006.457,2.006.929,3.016,1.377a1.857,1.857,0,0,0,2.463-.645,1.814,1.814,0,0,0-.646-2.463c-.918-.408-1.828-.837-2.743-1.253-.449-.205-.9-.412-1.356-.6a5.29,5.29,0,0,1-.8-.423c-.357-.222.119.179-.132-.118-.071-.068-.138-.139-.2-.213.117.161.14.189.066.084-.087-.135-.159-.275-.24-.413.144.246.046.13-.021-.071a6.718,6.718,0,0,1-.213-.872c-.126-.678-.221-1.366-.329-2.048a43.494,43.494,0,0,1-.465-5.71,1.8,1.8,0,1,0-3.6,0Z"/><path class="c" d="M29.131,117.041c-.859,9.031-1.453,18.136-1.481,27.211a1.825,1.825,0,0,0,2.709,1.554c3.041-1.362,5.536-4.026,7.911-6.288,2.718-2.587,5.413-5.351,8.684-7.244a1.8,1.8,0,0,0-1.817-3.109c-3.319,1.921-6.116,4.667-8.874,7.3-2.337,2.226-4.723,4.895-7.721,6.237l2.708,1.555c.028-9.075.622-18.18,1.481-27.211.219-2.3-3.382-2.29-3.6,0Z"/><path class="c" d="M30.7,115.219c-3.534-.29-7.068-.589-10.6-.866-3-.234-6.027-.571-9.037-.574A1.819,1.819,0,0,0,9.325,115.1c-1.888,11.113-3.495,22.338-3.658,33.627a87.126,87.126,0,0,0,.355,9.814c.337,3.406.854,6.815,2.895,9.67a10.137,10.137,0,0,0,3.319,3.144,11.4,11.4,0,0,0,4.379,1.068,34.369,34.369,0,0,0,10.484-.882c6.931-1.531,12.961-5.454,19.666-7.6,2.2-.7,1.258-4.18-.957-3.471-5.593,1.789-10.724,4.842-16.307,6.687a35.2,35.2,0,0,1-9.176,1.719c-2.543.132-5.68.308-7.593-1.657-2.188-2.246-2.761-5.337-3.075-8.335a83.955,83.955,0,0,1-.4-9.219,166.219,166.219,0,0,1,1.349-19.019c.594-4.884,1.367-9.741,2.191-14.59l-1.736,1.321c3.01,0,6.04.34,9.037.574,3.536.277,7.07.576,10.6.866,2.309.189,2.3-3.412,0-3.6Z"/><path class="c" d="M136.5,227.559c.158,2.46.325,4.92.45,7.382l1.321-1.736q-.8.126-1.606.237l-.4.056c-.135.019-.367.049-.105.014-.318.043-.635.084-.953.125q-1.943.249-3.888.474-2.873.336-5.75.642a1.852,1.852,0,0,0-1.8,1.8,1.812,1.812,0,0,0,1.8,1.8c4.56-.486,9.132-.965,13.663-1.676a1.8,1.8,0,0,0,1.322-1.736c-.125-2.462-.292-4.922-.45-7.382a1.841,1.841,0,0,0-1.8-1.8,1.816,1.816,0,0,0-1.8,1.8Z"/><path class="h" d="M80.788,132.158q.074.315.153.632a5.545,5.545,0,0,1,.23,1.4c0,.5-3.121,25.773-3.7,30.618,1.432,1.984,5.857,8.219,7.946,10.114,1.823-1.758,5.708-7.486,7.318-10.038-.448-3.935-4.449-29.754-4.437-30.537a8.46,8.46,0,0,1,.546-2.488c.712-2.174.855-3.691,1.568-5.865-2.114,0-9.387.017-10.923.017C80.005,128.06,80.309,130.109,80.788,132.158Z"/><path class="c" d="M81.242,135.939c2.351,0,4.7-.052,7.053-.053a1.8,1.8,0,0,0,0-3.6c-2.351,0-4.7.052-7.053.053a1.8,1.8,0,1,0,0,3.6Z"/><path class="c" d="M93.021,154.281c-.8-5.4-1.623-10.792-2.413-16.191q-.189-1.285-.37-2.572c-.022-.153-.043-.306-.064-.459-.074-.543.04.342-.015-.112-.018-.155-.051-.314-.055-.471a12.752,12.752,0,0,1,.863-3.457c.407-1.514.7-3.049,1.177-4.546a1.815,1.815,0,0,0-1.735-2.278c-3.641,0-7.282.016-10.923.017a1.82,1.82,0,0,0-1.735,2.278c.365,1.487.641,2.991.945,4.491a17.486,17.486,0,0,1,.671,3.273,31.042,31.042,0,0,1-.4,3.459q-.912,7.631-1.855,15.258a1.812,1.812,0,0,0,1.8,1.8,1.841,1.841,0,0,0,1.8-1.8q.951-7.77,1.889-15.542c.125-1.055.349-2.15.368-3.214a18.881,18.881,0,0,0-.755-3.954c-.324-1.578-.609-3.162-.993-4.728l-1.736,2.279c3.641,0,7.282-.017,10.923-.017l-1.736-2.279c-.5,1.567-.8,3.176-1.235,4.758A14.084,14.084,0,0,0,86.5,134.4a38.12,38.12,0,0,0,.557,4.084c.814,5.588,1.665,11.17,2.5,16.755a1.814,1.814,0,0,0,2.214,1.257,1.843,1.843,0,0,0,1.257-2.214Z"/><path class="a" d="M93.045,133.792c3.5-3.473,5.784-7.68,8.366-11.882a18.637,18.637,0,0,0-3.793-5.125,37.706,37.706,0,0,1-10.884,7.586c-.225.1-.476.227-.549.463a.87.87,0,0,0,.126.615,35.25,35.25,0,0,0,2.251,2.907C90.093,130.23,92.016,132.526,93.045,133.792Z"/><path class="a" d="M75.612,133.792c-3.495-3.473-5.784-7.68-8.366-11.882a18.637,18.637,0,0,1,3.793-5.125,37.706,37.706,0,0,0,10.884,7.586c.225.1.476.227.549.463a.87.87,0,0,1-.126.615,35.25,35.25,0,0,1-2.251,2.907C78.564,130.23,76.641,132.526,75.612,133.792Z"/><path class="c" d="M94.318,135.065a48.774,48.774,0,0,0,6.858-9.3c.492-.811.98-1.625,1.474-2.435a2.516,2.516,0,0,0,.528-1.662,4.392,4.392,0,0,0-.686-1.535,20,20,0,0,0-3.6-4.623,1.83,1.83,0,0,0-2.545,0,35.315,35.315,0,0,1-5.818,4.717q-1.542,1-3.175,1.846c-1.083.559-2.537.952-2.9,2.28a3.105,3.105,0,0,0,.79,2.693c.715.949,1.469,1.87,2.222,2.789,1.431,1.748,2.885,3.475,4.311,5.227a1.812,1.812,0,0,0,2.546,0,1.842,1.842,0,0,0,0-2.545c-1.19-1.463-2.4-2.907-3.6-4.362-.676-.819-1.35-1.639-2.011-2.469-.2-.249-.344-.429-.525-.676a3.859,3.859,0,0,0-.235-.334c-.17-.183.069-.248.038.155l-.246.909q-.5.413-.1.182l.253-.117c.255-.12.51-.24.763-.366q.775-.384,1.53-.806,1.559-.868,3.029-1.881a39.735,39.735,0,0,0,5.672-4.7H96.345a17.682,17.682,0,0,1,3.511,4.761V121c-2.456,4.007-4.742,8.159-8.084,11.518A1.8,1.8,0,0,0,94.318,135.065Z"/><path class="c" d="M76.885,132.52c-3.342-3.359-5.628-7.511-8.084-11.518v1.817a17.661,17.661,0,0,1,3.511-4.761H69.766a39.866,39.866,0,0,0,5.673,4.7q1.47,1.01,3.029,1.881.693.387,1.4.743c.252.126.507.25.763.37.126.06.253.118.38.176q.408.23-.1-.182l-.246-.909c-.029-.369.218-.35.038-.155a2.85,2.85,0,0,0-.189.271c-.208.288-.346.456-.571.739-.661.83-1.336,1.65-2.011,2.469-1.2,1.455-2.41,2.9-3.6,4.362a1.852,1.852,0,0,0,0,2.545,1.813,1.813,0,0,0,2.546,0c1.4-1.716,2.821-3.409,4.224-5.12.762-.93,1.522-1.862,2.25-2.818a3.174,3.174,0,0,0,.849-2.771c-.356-1.29-1.72-1.676-2.775-2.215-1.089-.556-2.149-1.169-3.177-1.83a35.355,35.355,0,0,1-5.944-4.8,1.833,1.833,0,0,0-2.546,0,19.949,19.949,0,0,0-3.53,4.5,6.443,6.443,0,0,0-.725,1.419,2.338,2.338,0,0,0,.5,1.9c.494.81.982,1.624,1.474,2.435a48.774,48.774,0,0,0,6.858,9.3A1.8,1.8,0,0,0,76.885,132.52Z"/><path class="c" d="M101.725,122.282c5.025,2.045,9.949,4.321,14.778,6.792,2.254,1.152,4.489,2.341,6.715,3.545a28.694,28.694,0,0,0,3.4,1.64,8.983,8.983,0,0,1,3.021,1.726,13.578,13.578,0,0,1,3.73,5.057,18.674,18.674,0,0,1,1.083,5.791c.328,5.59.583,11.184.895,16.775.648,11.612,1.338,23.223,1.981,34.836q.48,8.666.913,17.334c.109,2.208.214,4.415.293,6.624.021.609.04,1.218.063,1.827.014.407.183,1.136-.041,1.472-.1.15.22-.068-.037.05a1.575,1.575,0,0,1-.409.046l-1.464.166-4.609.523-6.873.779a1.857,1.857,0,0,0-1.8,1.8,1.81,1.81,0,0,0,1.8,1.8c4.469-.507,8.942-.977,13.406-1.52a3.929,3.929,0,0,0,3.675-3.93c.015-1.255-.092-2.529-.14-3.784-.217-5.741-.543-11.48-.851-17.217-.664-12.347-1.4-24.69-2.095-37.034q-.506-8.958-.973-17.918c-.238-4.639-.5-9.259-3.368-13.133A14.915,14.915,0,0,0,128.138,131a75.051,75.051,0,0,1-7.966-4.073q-8.556-4.464-17.49-8.112a1.814,1.814,0,0,0-2.214,1.258,1.843,1.843,0,0,0,1.257,2.214Z"/><path class="c" d="M125.666,141.979c-1.211,7.5-2.831,14.925-3.574,22.491-.525,5.347-.883,10.712-1.24,16.072q-.474,7.113-.888,14.228c-.419,7.061.741,14.1,1.5,21.109.95,8.824,1.863,17.649,2.557,26.5.18,2.295,3.782,2.314,3.6,0-.613-7.814-1.387-15.611-2.224-23.4-.445-4.144-.861-8.292-1.332-12.433a61.392,61.392,0,0,1-.563-10.64c.583-9.813,1.138-19.635,2.009-29.428.7-7.926,2.364-15.689,3.632-23.534a1.858,1.858,0,0,0-1.258-2.214,1.812,1.812,0,0,0-2.214,1.257Z"/><path class="c" d="M44.575,156.96c1.486,9.68,2.048,19.5,2.741,29.259.243,3.418.493,6.837.7,10.258a68.105,68.105,0,0,1-.734,11.291q-.59,5.5-1.174,11c-.845,7.86-1.627,15.725-2.246,23.607-.181,2.311,3.42,2.3,3.6,0,.556-7.077,1.236-14.142,1.988-21.2q.564-5.283,1.133-10.566a110.315,110.315,0,0,0,1.094-12.444c-.028-3.467-.406-6.957-.648-10.413q-.534-7.6-1.143-15.2c-.454-5.54-.991-11.052-1.835-16.549a1.814,1.814,0,0,0-2.214-1.257,1.843,1.843,0,0,0-1.257,2.214Z"/><path class="c" d="M66.628,119.381a238.617,238.617,0,0,0-22.495,10.367c-2.038,1.105-.222,4.214,1.817,3.109a229.23,229.23,0,0,1,21.635-10,1.86,1.86,0,0,0,1.257-2.214,1.812,1.812,0,0,0-2.214-1.258Z"/><path class="c" d="M125.347,240.587a62.451,62.451,0,0,1-9.9.919,97.911,97.911,0,0,1-12-.21,30.261,30.261,0,0,1-4.66-.7,5.174,5.174,0,0,1-2.944-1.617c-2.626-2.718-4.035-6.729-5.218-10.235a109.917,109.917,0,0,1-3.985-16.271c-.4-2.278-3.867-1.312-3.471.957A113.245,113.245,0,0,0,86.852,228.8c1.351,4.182,2.978,8.548,5.791,11.988,2.232,2.73,5.195,3.433,8.545,3.868a83.351,83.351,0,0,0,12.618.5,72.685,72.685,0,0,0,12.5-1.1c2.27-.454,1.309-3.924-.957-3.472Z"/><path class="g" d="M66.862,119.239c-1.7,0-10.47,8.986-11.686,12.145-.08.207,4.816,4.431,6.466,5.911-.881.791-6.2,5.867-6.25,6.226-.025.168,14.491,17.222,22.493,25.969l5.147,5.221c.337-.727.7-1.413,1.045-2.144.56-1.121,1.163-2.415,1.8-3.857L85,167.262c-3.008-6.5-8.6-19.536-12.676-31.221-2.547-7.3-4.517-13.64-5.465-16.8"/><path class="c" d="M45.291,243.838a67.74,67.74,0,0,0,11.23,1.057,71.114,71.114,0,0,0,13.174-.629,15.807,15.807,0,0,0,4.628-1.316,10.824,10.824,0,0,0,3.576-3.226,39.893,39.893,0,0,0,5.5-11.2,86.151,86.151,0,0,0,3.405-12.617c.425-2.265-3.044-3.235-3.471-.957A86.829,86.829,0,0,1,80.7,225.273a47.328,47.328,0,0,1-4.72,10.936,12.148,12.148,0,0,1-2.631,3.126,8.392,8.392,0,0,1-3.586,1.281,56.5,56.5,0,0,1-11.594.714,66.161,66.161,0,0,1-11.917-.963c-2.262-.452-3.23,3.017-.957,3.471Z"/><path class="c" d="M65.248,119.717A377.251,377.251,0,0,0,79.73,159.494c1.243,2.908,2.514,5.805,3.841,8.676.971,2.1,4.075.274,3.109-1.817A354.64,354.64,0,0,1,71.6,127.923q-1.494-4.565-2.883-9.163c-.665-2.213-4.14-1.27-3.472.957Z"/><path class="g" d="M102.1,119.332c2.347.96,10.164,9.081,11.308,12.052.079.207-4.816,4.431-6.467,5.911.882.791,6.2,5.867,6.25,6.226.025.167-14.907,22.583-17.772,26.211l-13.4,15.7c-.184-2.134-.29-3.578-.292-3.985,0-4.513,1.322-6.453,2.473-8.88,3.462-6.943,8.616-20.508,12.75-34.383a187.8,187.8,0,0,0,4.338-18.945h.435A1.047,1.047,0,0,1,102.1,119.332Z"/><path class="c" d="M60.492,136.022c-1.206,1.091-2.37,2.232-3.532,3.369a16.019,16.019,0,0,0-2.988,3.191c-.965,1.748,1.633,3.907,2.636,5.107q7.923,9.479,16.033,18.8c2.871,3.311,5.749,6.618,8.706,9.853,1.566,1.714,4.106-.838,2.545-2.546-8.4-9.2-16.446-18.751-24.443-28.3q-.93-1.109-1.85-2.224c-.189-.231-.373-.467-.565-.694-.262-.312.12.172.1.127-.122-.241.062.132.119.338V144c-.174.476-.48.731-.041.262.234-.25.469-.5.709-.743.616-.631,1.246-1.249,1.877-1.865,1.068-1.04,2.136-2.086,3.243-3.086,1.722-1.557-.83-4.1-2.546-2.546Z"/><path class="c" d="M66.984,117.439c-1.593.077-2.984,1.4-4.122,2.382a52.854,52.854,0,0,0-4.618,4.572,35.527,35.527,0,0,0-3.886,4.915c-.555.889-1.19,1.981-.608,3.012a7,7,0,0,0,1.423,1.515c1.743,1.611,3.551,3.15,5.319,4.733,1.722,1.541,4.276-1,2.546-2.546-1.235-1.1-2.487-2.19-3.724-3.292-.616-.548-1.232-1.1-1.834-1.662-.193-.181-.378-.371-.572-.55a1.893,1.893,0,0,0-.191-.2c-.236-.157.242.408.136.172l.246.908c.038.926-.292.867-.076.508.073-.121.131-.253.2-.376.15-.266.314-.524.483-.778.386-.579.765-1.078,1.051-1.437,1.067-1.337,2.213-2.611,3.4-3.841a46.872,46.872,0,0,1,3.506-3.327c.123-.1.248-.2.372-.308.07-.058.435-.338.1-.087.207-.157.416-.31.633-.453a5.364,5.364,0,0,0,.536-.318c.234-.2-.435.122-.1.042s-.484.028-.221.015c2.306-.111,2.32-3.712,0-3.6Z"/><path class="c" d="M105.669,138.568c1.107,1,2.175,2.046,3.242,3.086.632.616,1.262,1.234,1.878,1.865.222.226.444.453.657.687.455.5.227.384.011-.206v-.957c.143-.652.238-.447.065-.226-.118.151-.21.335-.314.5-.361.565-.73,1.126-1.1,1.687q-1.841,2.805-3.709,5.593c-2.993,4.482-6,8.955-9.07,13.386q-.993,1.435-2,2.859-.4.556-.8,1.108c-.1.134-.2.266-.3.4-.274.372-.067.09-.086.114a1.863,1.863,0,0,0,0,2.546,1.811,1.811,0,0,0,2.546,0c3.747-4.773,7.02-9.962,10.4-14.993q2.79-4.15,5.548-8.322c.733-1.111,2.67-3.161,2.284-4.647-.341-1.313-2.078-2.569-2.99-3.464-1.224-1.2-2.451-2.406-3.723-3.557-1.715-1.55-4.269.988-2.546,2.546Z"/><path class="c" d="M101.723,121.039c.261.013-.523-.083-.254-.026.361.076-.221-.129-.109-.05.178.125.391.217.575.337.217.143.426.3.633.453-.343-.26.064.054.1.087.124.1.249.2.372.308a46.872,46.872,0,0,1,3.506,3.327c1.187,1.23,2.333,2.5,3.4,3.841.252.316.19.231.49.639.192.262.381.527.561.8.157.236.31.476.451.722.072.124.131.259.206.38.251.4-.087.458-.049-.456l.246-.908c-.1.227.324-.27.159-.2-.073.032-.155.17-.214.225-.194.179-.379.37-.572.55-.6.564-1.218,1.114-1.834,1.662-1.237,1.1-2.489,2.188-3.724,3.292-1.73,1.549.823,4.088,2.546,2.546,1.589-1.422,3.206-2.813,4.786-4.245a18.65,18.65,0,0,0,1.581-1.511,2.378,2.378,0,0,0,.071-2.987,27.065,27.065,0,0,0-3.566-4.731,56.5,56.5,0,0,0-4.71-4.8c-1.253-1.125-2.858-2.765-4.654-2.851-2.316-.111-2.31,3.489,0,3.6Z"/><path class="c" d="M86.7,212.953c-.85-6.836-1.573-13.687-2.239-20.543-.25-2.582-.493-5.165-.71-7.751a28.334,28.334,0,0,1-.156-4.941c.24-2.646,1.507-4.872,2.633-7.218,1.334-2.781,2.529-5.63,3.679-8.491,3.06-7.618,5.74-15.4,8.141-23.245a172.678,172.678,0,0,0,4.973-21.047c.392-2.265-3.077-3.239-3.472-.957a219.522,219.522,0,0,1-12.161,41.88c-1.177,3.03-2.406,6.041-3.773,8.99-1.108,2.393-2.535,4.728-3.177,7.3-1.047,4.206-.213,8.759.186,13,.723,7.683,1.523,15.362,2.476,23.02a1.86,1.86,0,0,0,1.8,1.8,1.81,1.81,0,0,0,1.8-1.8Z"/><path class="c" d="M90.775,181.568a4.441,4.441,0,0,1,.034-.5l-.064.478a3.353,3.353,0,0,1,.213-.788l-.182.43a2.892,2.892,0,0,1,.2-.39c.033-.053.072-.1.107-.155-.325.492-.212.267-.1.145.053-.055.109-.1.164-.157.2-.183-.4.272-.153.12a3.445,3.445,0,0,1,.43-.236l-.43.182a3.386,3.386,0,0,1,.84-.224l-.479.065a3.882,3.882,0,0,1,.987,0l-.479-.064a3.363,3.363,0,0,1,.757.2l-.43-.182a4.277,4.277,0,0,1,.438.234c.245.144-.353-.308-.147-.117.058.053.116.1.171.16a1.508,1.508,0,0,0,.154.173c-.065-.047-.3-.413-.126-.15a3.012,3.012,0,0,1,.22.412l-.182-.43a3.691,3.691,0,0,1,.25.929l-.064-.478a3.815,3.815,0,0,1,.013.937l.064-.479a3.183,3.183,0,0,1-.2.761l.182-.43a3.04,3.04,0,0,1-.22.424c-.033.052-.07.1-.1.152.325-.509.2-.254.083-.124-.059.062-.122.119-.184.178-.2.185.4-.277.158-.118a3.316,3.316,0,0,1-.483.271l.43-.181a3.417,3.417,0,0,1-.829.225l.478-.064a4.116,4.116,0,0,1-.967.009l.478.065a3.082,3.082,0,0,1-.732-.19l.43.181a3.314,3.314,0,0,1-.419-.226c-.238-.146.4.345.11.081-.055-.049-.107-.1-.157-.156-.115-.125-.215-.346.1.148-.039-.061-.082-.118-.12-.18a3.125,3.125,0,0,1-.209-.407l.181.43a3.876,3.876,0,0,1-.246-.908l.064.478a4.2,4.2,0,0,1-.038-.538,1.8,1.8,0,1,0-3.6,0,4.82,4.82,0,0,0,2.356,4.313,4.963,4.963,0,0,0,5.845-.984,4.6,4.6,0,0,0,1.085-2.253,5.365,5.365,0,0,0-.213-2.7,4.556,4.556,0,0,0-1.913-2.4,5.2,5.2,0,0,0-3.45-.549,4.368,4.368,0,0,0-2.906,1.824,4.792,4.792,0,0,0-.8,2.745,1.8,1.8,0,1,0,3.6,0Z"/><path class="c" d="M127.445,278.662c.118-4.375.309-17.13.428-18.674.942-.011,2.685.109,3.653.078.08,3.6-.362,16.237-.311,18.692Z"/><path class="c" d="M129.245,278.662c.092-3.466.145-6.932.214-10.4.054-2.751.015-5.529.214-8.275l-1.8,1.8c1.218,0,2.435.1,3.653.078l-1.8-1.8c.127,6.231-.423,12.463-.311,18.692l1.8-1.8-3.77-.1c-2.318-.059-2.317,3.541,0,3.6l3.77.1a1.82,1.82,0,0,0,1.8-1.8c-.112-6.229.438-12.461.311-18.692a1.826,1.826,0,0,0-1.8-1.8c-1.218.024-2.435-.08-3.653-.078a1.841,1.841,0,0,0-1.8,1.8c-.2,2.746-.16,5.524-.214,8.275-.069,3.467-.122,6.933-.214,10.4C125.583,280.98,129.183,280.978,129.245,278.662Z"/><path class="a" d="M84.131,91.3c-3.68,0-9.818.553-13.8.857-.736.056-2.539.262-3.016.794-.886.988-.55,3.1-.664,4.3A30.328,30.328,0,0,0,66.824,103c.265,2.527.394,5.22,2.145,7.191,3.235,3.644,10.733,5.585,15.659,5.585a30.077,30.077,0,0,0,9.639-1.728,12.487,12.487,0,0,0,6.6-4.851c1.325-2.167,1.273-4.34,1.558-6.81a25.383,25.383,0,0,0,.1-5.231c-.121-1.2.187-3.148-.71-4.149a5.167,5.167,0,0,0-2.7-.841C94.456,91.769,88.22,91.3,84.131,91.3Z"/><path class="c" d="M102.368,93.41a28.7,28.7,0,0,1,3.161-5.062c.752-1.054,1.523-2.095,2.3-3.129q.63-.835,1.267-1.666c.4-.521.8-1.043,1.085-1.41a1.86,1.86,0,0,0,0-2.545,1.812,1.812,0,0,0-2.546,0c-1.732,2.238-3.46,4.481-5.108,6.782a29.362,29.362,0,0,0-3.27,5.213,1.85,1.85,0,0,0,.646,2.463,1.82,1.82,0,0,0,2.463-.646Z"/><path class="c" d="M69.383,91.2A58.169,58.169,0,0,0,65.9,85.883q-2.354-3.351-4.869-6.584a1.81,1.81,0,0,0-2.546,0,1.845,1.845,0,0,0,0,2.545l.28.359c-.242-.311.079.105.1.134q.273.357.544.715.593.786,1.176,1.581,1.17,1.59,2.3,3.208a57.03,57.03,0,0,1,3.381,5.176A1.8,1.8,0,0,0,69.383,91.2Z"/><path class="c" d="M84.131,89.5c-3.785.015-7.569.363-11.339.663a28.342,28.342,0,0,0-4.841.544,3.863,3.863,0,0,0-2.993,3.639,44.675,44.675,0,0,0,.348,11.186,11,11,0,0,0,2,5.447,12.761,12.761,0,0,0,3.8,3.133c6.592,3.758,14.782,4.284,21.978,2.2,3.742-1.082,7.637-3.02,9.56-6.594a15.476,15.476,0,0,0,1.455-6.055,38.039,38.039,0,0,0,.249-6.311c-.136-1.928.182-4.213-1.341-5.7-1.344-1.31-3.667-1.278-5.407-1.42-4.478-.366-8.975-.723-13.47-.737a1.8,1.8,0,0,0,0,3.6c3.27.01,6.539.219,9.8.454,1.668.12,3.341.227,5.006.394a3.744,3.744,0,0,1,1.582.326c-.165-.121.053.118.1.354a6.119,6.119,0,0,1,.073,1.082,46.717,46.717,0,0,1-.461,10.109c-.655,3.262-3.253,5.317-6.259,6.425a26.122,26.122,0,0,1-18.836-.172c-2.379-.947-5.066-2.412-5.865-5.016a28.972,28.972,0,0,1-.818-9.809c.044-.741-.009-1.486.043-2.227a1.984,1.984,0,0,1,.171-.877c-.1.164-.068.1.391,0a31.607,31.607,0,0,1,4.3-.427c3.581-.285,7.175-.6,10.769-.618C86.447,93.093,86.452,89.493,84.131,89.5Z"/><path class="c" d="M73.4,83.388c-.4,1.314-.14,4.338,2.35,4.595,3.291-.02,3.466-3.675,2.358-5.394C77.205,81.181,74.538,80.6,73.4,83.388Z"/><path class="c" d="M99.761,83.388c.405,1.314.141,4.338-2.349,4.595-3.291-.02-3.467-3.675-2.359-5.394C95.96,81.181,98.628,80.6,99.761,83.388Z"/><path class="c" d="M70.4,80.484a6.826,6.826,0,0,0,1.309-.068,14.828,14.828,0,0,0,2.08-.39,6.811,6.811,0,0,0,3.364-1.8,3.026,3.026,0,0,0,.723-2.78,1.817,1.817,0,0,0-2.214-1.257A1.835,1.835,0,0,0,74.4,76.407c.01.042.019.084.027.127l-.065-.478a1.14,1.14,0,0,1,0,.286l.064-.479a1.221,1.221,0,0,1-.076.272l.182-.43a1.579,1.579,0,0,1-.172.291l.281-.364a2.347,2.347,0,0,1-.405.4l.364-.281a4.953,4.953,0,0,1-1.088.606l.43-.181a10.97,10.97,0,0,1-2.691.7l.479-.065a6.888,6.888,0,0,1-1.338.072,1.81,1.81,0,0,0-1.8,1.8,1.842,1.842,0,0,0,1.8,1.8Z"/><path class="i" d="M140.254,67.228c1.481-3.261,5.712-4.7,9.063-4.233,5.5.771,10.795,5.817,10.945,11.211a.431.431,0,0,1-.485.425A38.193,38.193,0,0,0,147.3,75.3c-4.425.87-9.383-1.873-7.249-7.592C140.117,67.546,140.183,67.384,140.254,67.228Z"/><path class="i" d="M320.886,74.952c-1.482-3.261-5.712-4.7-9.063-4.233-5.5.771-10.795,5.816-10.945,11.21a.431.431,0,0,0,.485.426,38.186,38.186,0,0,1,12.473.672c4.425.871,9.384-1.872,7.25-7.591C321.023,75.269,320.957,75.108,320.886,74.952Z"/><path class="c" d="M321.73,106.456c-.111-.054-.231-.093-.342-.148a1.239,1.239,0,0,1-.278-.186,1.876,1.876,0,0,1-.25-.213,1.223,1.223,0,0,1-.35-1.215c.126-.358.464-.612.585-.971.22-.654-.391-1.51-.111-2.14a1.3,1.3,0,0,1,1.11-.783c.4-.082.88-.117,1.091-.467a2.2,2.2,0,0,0,.164-.579,1.193,1.193,0,0,1,1.166-.965,1.653,1.653,0,0,1,.872.162,2.176,2.176,0,0,0,.527.29c.4.1.759-.221,1.1-.448a1.454,1.454,0,0,1,1.445-.26c.6.334.716,1.3,1.336,1.6.341.167.759.1,1.1.267a1.223,1.223,0,0,1,.619,1.1,1.88,1.88,0,0,1-.024.327,1.285,1.285,0,0,1-.063.329,2.144,2.144,0,0,0-.181.573c-.018.408.364.7.653.99a1.439,1.439,0,0,1,.481,1.382c-.209.658-1.079.941-1.255,1.608a1.819,1.819,0,0,0-.023.585,1.49,1.49,0,0,1-.484,1.138c-.808.616-1.684-.073-2.455.143-.847.4-.671,1.7-2.2,1.558a.713.713,0,0,1-.307-.092c-.316-.2-.5-.568-.821-.753-.6-.343-1.411.076-2.026-.237a1.44,1.44,0,0,1-.645-1.313c0-.409.057-.887-.246-1.161A.792.792,0,0,0,321.73,106.456Z"/><path class="c" d="M129.163,103.326c-.111-.053-.231-.093-.342-.147a1.278,1.278,0,0,1-.278-.187,1.946,1.946,0,0,1-.25-.212,1.224,1.224,0,0,1-.35-1.216c.126-.358.464-.611.585-.971.22-.654-.391-1.509-.111-2.14a1.3,1.3,0,0,1,1.11-.783c.4-.082.881-.116,1.091-.467a2.168,2.168,0,0,0,.164-.578,1.193,1.193,0,0,1,1.166-.966,1.652,1.652,0,0,1,.872.162,2.176,2.176,0,0,0,.527.29c.4.1.759-.221,1.1-.448a1.452,1.452,0,0,1,1.445-.259c.6.333.717,1.3,1.336,1.6.341.167.759.1,1.1.266a1.223,1.223,0,0,1,.619,1.1,1.88,1.88,0,0,1-.024.327,1.228,1.228,0,0,1-.063.329,2.144,2.144,0,0,0-.181.573c-.018.409.364.7.653.991a1.439,1.439,0,0,1,.481,1.382c-.209.657-1.078.941-1.255,1.608a1.817,1.817,0,0,0-.023.585,1.491,1.491,0,0,1-.484,1.138c-.808.615-1.684-.074-2.455.143-.847.4-.671,1.7-2.2,1.557a.717.717,0,0,1-.307-.092c-.316-.2-.5-.567-.821-.753-.6-.343-1.411.077-2.026-.237a1.441,1.441,0,0,1-.645-1.313c0-.409.057-.886-.246-1.161A.823.823,0,0,0,129.163,103.326Z"/><path class="c" d="M322.44,74.044c-1.8-3.734-6.392-5.564-10.364-5.157a15.381,15.381,0,0,0-10.882,6.719,11.643,11.643,0,0,0-2.1,6.045,2.309,2.309,0,0,0,2.273,2.5c1.345.043,2.737-.238,4.094-.241a39,39,0,0,1,7.356.744,10.9,10.9,0,0,0,5.614-.131,7.137,7.137,0,0,0,4.353-3.675,8.276,8.276,0,0,0-.34-6.808,1.811,1.811,0,0,0-2.463-.646,1.847,1.847,0,0,0-.645,2.463,4.053,4.053,0,0,1-.171,4.075,4.7,4.7,0,0,1-3.451,1.446,12.54,12.54,0,0,1-2.657-.327c-1.254-.222-2.517-.408-3.783-.541a35.725,35.725,0,0,0-3.813-.2q-.9,0-1.808.05-.562.03-1.124.077a5.634,5.634,0,0,1-.924.137l.794.463-.179-.154.463.794a4.949,4.949,0,0,1,.574-2.373,10,10,0,0,1,1.564-2.572,12.336,12.336,0,0,1,4.957-3.628c3.305-1.271,7.862-.767,9.558,2.753a1.816,1.816,0,0,0,2.462.645A1.837,1.837,0,0,0,322.44,74.044Z"/><path class="c" d="M293.686,61.489c8.85-3.937,17.722-7.833,26.653-11.582a1.863,1.863,0,0,0,1.257-2.214,1.81,1.81,0,0,0-2.214-1.257C310.163,50.305,301,54.317,291.869,58.38a1.815,1.815,0,0,0-.645,2.463,1.842,1.842,0,0,0,2.462.646Z"/><path class="c" d="M296.7,113.912c-.476-.237-.982-.45-1.439-.723l.828,2.033h0l-2.214,1.258c-.906-.363-.137-.04.079.066l1.246.614q2,.984,3.987,1.97,4.833,2.388,9.666,4.773c1.087.536,2.172,1.074,3.264,1.6a1.847,1.847,0,0,0,2.462-.646,1.815,1.815,0,0,0-.645-2.462c-5.572-2.683-11.1-5.469-16.641-8.206-.813-.4-1.618-.843-2.461-1.18a1.826,1.826,0,0,0-2.215,1.257h0a1.823,1.823,0,0,0,.827,2.032c.457.274.963.486,1.439.724a1.844,1.844,0,0,0,2.462-.646,1.817,1.817,0,0,0-.645-2.463Z"/><path class="c" d="M168.885,50.546c-9.1-4.135-18.244-8.2-27.512-11.944a1.814,1.814,0,0,0-2.215,1.257,1.842,1.842,0,0,0,1.258,2.214c8.979,3.625,17.837,7.575,26.652,11.582,2.093.951,3.925-2.151,1.817-3.109Z"/><path class="c" d="M166.7,114.111c.477-.239.96-.469,1.432-.717a1.818,1.818,0,0,0,0-3.109c-1.01-.631-2.22.2-3.144.659l-3.923,1.949q-4.989,2.476-9.987,4.936c-1.139.558-2.275,1.126-3.429,1.654a1.814,1.814,0,0,0-.646,2.462,1.843,1.843,0,0,0,2.463.646c5.586-2.555,11.048-5.411,16.548-8.145.706-.351,1.406-.716,2.118-1.052h-1.817v-3.109c-.472.249-.955.479-1.432.717a1.8,1.8,0,0,0,1.817,3.109Z"/><path class="c" d="M322.638,104.9a3.809,3.809,0,0,1-.487-.232l.1.078q-.214-.219-.046-.011c0,.089.051.183.052.279l-.129.439a2.239,2.239,0,0,1,.179-.272,3.263,3.263,0,0,0,.518-2.7c-.022-.108-.05-.214-.074-.321l-.038-.16c-.042-.215-.044-.211,0,.01-.056.184-.239.731-.554.632a3.3,3.3,0,0,0,.882-.2,2.893,2.893,0,0,0,1.329-.721,2.582,2.582,0,0,0,.675-1.292c.087-.448-.192.072.042-.187a1.492,1.492,0,0,1-.395.312c-.013.008-.356.179-.033.027.421-.2-.207.2-.177-.078a2.2,2.2,0,0,0,.386.239,2.5,2.5,0,0,0,1.049.3,2.783,2.783,0,0,0,1.557-.392c.1-.055.695-.528.753-.479l-.1.051a.85.85,0,0,1-.572-.134c-.031-.02-.3-.241-.249-.268.018-.009.446.74.492.807a3.062,3.062,0,0,0,2.073,1.38l.189.027q.468.13-.166-.168c-.044-.045-.139-.273-.163-.287l-.011-.073a1.991,1.991,0,0,1-.024.327c.1-.39-.163.343-.18.423a2.777,2.777,0,0,0,.947,2.578,3.467,3.467,0,0,0,.287.291c-.117.028-.121-.316-.12-.348,0-.147.1-.26.125-.385.081-.105.063-.093-.057.038-.073.07-.148.138-.224.2a3.235,3.235,0,0,0-1.174,2.272c-.006.134,0,.26.008.393l.041-.173q-.088.3.013.042a2.812,2.812,0,0,0,.292-.236c.174-.025.195-.037.062-.037s-.111,0,.062.014a3.764,3.764,0,0,0-2.611.167,3.854,3.854,0,0,0-1.285,1.41.916.916,0,0,1-.111.169q.276-.341.089-.132c-.138.124-.1.094.119-.092l.226-.09c-.153.036-.157.043-.013.019s.138-.021-.051-.012a1.157,1.157,0,0,1,.554.222c-.038-.265-.744-.712-.941-.831a3.154,3.154,0,0,0-1.651-.388c-.148,0-.3.018-.442.023a3.144,3.144,0,0,1-.35,0,.664.664,0,0,1,.539.23c.043.047.175.4.135.2-.032-.131-.034-.1,0,.092-.007-.1-.008-.207,0-.311a2.818,2.818,0,0,0-1.332-2.685,1.8,1.8,0,1,0-1.817,3.108c.486.268-.572-.434-.451-.742a1.353,1.353,0,0,0,0,.4,4.552,4.552,0,0,0,.161,1.173,2.947,2.947,0,0,0,1.963,2.018,3.766,3.766,0,0,0,1.163.118c.22-.008.772.023.276-.127-.251-.075-.065-.031.049.091.091.1.179.2.279.287a2.734,2.734,0,0,0,1.708.713,3.3,3.3,0,0,0,3.125-1.807c.064-.108.287-.38-.051.037a.982.982,0,0,1,.138-.143l-.2.16q-.84.168-.341.156l-.153-.021c.083.014.165.029.248.045a3.729,3.729,0,0,0,2.713-.32,3.07,3.07,0,0,0,1.391-2.119,2.851,2.851,0,0,0,.066-.627c-.036-.346-.04-.119-.109.059-.107.281-.083.089.052-.025s.268-.235.393-.358a3.132,3.132,0,0,0-.178-4.632l-.115-.111q-.212-.231-.022.01l.1.775.071-.189a3.109,3.109,0,0,0,.22-1.159,3.077,3.077,0,0,0-1.181-2.6,2.96,2.96,0,0,0-1.306-.537,2.7,2.7,0,0,0-.374-.069l.395.243q-.2-.215.017.042a4.662,4.662,0,0,0-1.38-1.7,3.065,3.065,0,0,0-3.074.008c-.1.055-.2.113-.3.176l-.3.206q-.29.16-.04.054l.392.032q.631.145.265-.053a2.37,2.37,0,0,0-.829-.369,3.407,3.407,0,0,0-2.621.308,3.068,3.068,0,0,0-1.035,1.077,10.85,10.85,0,0,0-.49,1.361l.463-.794q-.3.345.32-.129a2.694,2.694,0,0,1-.307.075c-.2.043-.4.067-.6.127a3.191,3.191,0,0,0-1.368.787,3.282,3.282,0,0,0-.642,3.363c.041.215.047.213.019,0q-.009.47.138-.317a3.788,3.788,0,0,0-.8,2.217,3.406,3.406,0,0,0,2.147,2.831,1.859,1.859,0,0,0,2.463-.646A1.812,1.812,0,0,0,322.638,104.9Z"/><path class="c" d="M130.071,101.772a3.809,3.809,0,0,1-.487-.232l.1.079q-.215-.221-.046-.012c0,.089.052.183.052.28l-.129.438a2.239,2.239,0,0,1,.179-.272,3.263,3.263,0,0,0,.518-2.7c-.022-.107-.05-.213-.074-.32l-.038-.16q-.063-.323,0,.009c-.056.184-.239.732-.553.632a3.258,3.258,0,0,0,.881-.2,2.9,2.9,0,0,0,1.329-.722,2.578,2.578,0,0,0,.675-1.292c.088-.448-.192.073.042-.186a1.489,1.489,0,0,1-.395.311c-.012.008-.356.179-.033.027.421-.2-.207.2-.177-.078a2.141,2.141,0,0,0,.386.239,2.5,2.5,0,0,0,1.049.3,2.774,2.774,0,0,0,1.557-.392c.1-.055.695-.528.753-.478l-.1.05a.855.855,0,0,1-.572-.133c-.031-.021-.3-.242-.249-.269.018-.009.447.74.492.808a3.061,3.061,0,0,0,2.073,1.379l.189.028q.468.131-.166-.169c-.044-.045-.138-.272-.163-.287l-.011-.073a1.983,1.983,0,0,1-.024.327c.1-.39-.163.343-.18.424a2.776,2.776,0,0,0,.947,2.577,3.321,3.321,0,0,0,.287.291c-.117.028-.121-.315-.12-.347,0-.148.1-.261.125-.386q.123-.157-.057.039c-.073.069-.148.137-.224.2a3.237,3.237,0,0,0-1.174,2.273c-.006.134,0,.26.008.393l.041-.173q-.089.3.013.041a2.812,2.812,0,0,0,.292-.236c.174-.025.195-.037.062-.036s-.111-.005.062.013a3.77,3.77,0,0,0-2.611.168,3.848,3.848,0,0,0-1.284,1.409.883.883,0,0,1-.112.169q.276-.341.089-.132-.207.188.119-.092l.226-.09c-.153.037-.157.043-.013.019s.139-.02-.05-.012a1.149,1.149,0,0,1,.553.223c-.038-.265-.744-.713-.941-.832a3.154,3.154,0,0,0-1.651-.388c-.148,0-.294.018-.442.023a2.92,2.92,0,0,1-.35,0,.666.666,0,0,1,.539.23c.043.047.175.4.135.2-.032-.13-.034-.1-.005.092-.007-.1-.008-.207,0-.311a2.819,2.819,0,0,0-1.332-2.685,1.8,1.8,0,1,0-1.817,3.108c.486.269-.572-.434-.451-.741a1.381,1.381,0,0,0,0,.4,4.56,4.56,0,0,0,.161,1.174,2.949,2.949,0,0,0,1.963,2.017,3.736,3.736,0,0,0,1.163.118c.22-.008.772.023.276-.126-.25-.076-.065-.032.049.091.091.1.179.2.28.286a2.729,2.729,0,0,0,1.707.713A3.3,3.3,0,0,0,136.526,107c.064-.108.287-.38-.051.036a1.094,1.094,0,0,1,.138-.143l-.2.16q-.84.168-.341.157l-.153-.022.248.045a3.729,3.729,0,0,0,2.713-.32,3.068,3.068,0,0,0,1.391-2.118,2.865,2.865,0,0,0,.066-.627c-.035-.346-.04-.12-.108.059-.108.28-.084.088.051-.026s.268-.234.393-.358a3.132,3.132,0,0,0-.178-4.632l-.114-.11c-.142-.155-.149-.152-.023.009l.095.775.071-.189a3.363,3.363,0,0,0-.961-3.756,2.972,2.972,0,0,0-1.306-.537,2.673,2.673,0,0,0-.374-.069l.395.243q-.2-.214.017.042a4.662,4.662,0,0,0-1.38-1.7,3.065,3.065,0,0,0-3.074.008c-.1.055-.2.113-.3.177l-.3.2c-.192.107-.206.126-.04.054l.392.032q.631.145.265-.052a2.348,2.348,0,0,0-.828-.369,3.409,3.409,0,0,0-2.622.308,3.065,3.065,0,0,0-1.035,1.076,10.965,10.965,0,0,0-.49,1.361l.463-.794q-.3.345.32-.128a2.69,2.69,0,0,1-.307.074c-.2.043-.4.067-.595.127a3.211,3.211,0,0,0-1.368.787,3.282,3.282,0,0,0-.642,3.363c.041.215.047.213.019,0q-.009.47.138-.316a2.779,2.779,0,0,0-.276.4,2.834,2.834,0,0,0-.527,1.814,3.4,3.4,0,0,0,2.147,2.83,1.86,1.86,0,0,0,2.463-.645A1.813,1.813,0,0,0,130.071,101.772Z"/><path class="c" d="M141.808,68.137c1.7-3.523,6.251-4.019,9.557-2.753a12.291,12.291,0,0,1,4.958,3.628,10.2,10.2,0,0,1,1.5,2.442,5.1,5.1,0,0,1,.633,2.5l.463-.8-.179.155.794-.463a6.629,6.629,0,0,1-.924-.137c-.313-.027-.626-.048-.939-.067q-.994-.057-1.993-.061a35.424,35.424,0,0,0-3.641.183c-1.264.128-2.525.308-3.777.527a13.738,13.738,0,0,1-2.835.359,4.626,4.626,0,0,1-3.461-1.466,4.085,4.085,0,0,1-.161-4.056,1.859,1.859,0,0,0-.646-2.463,1.812,1.812,0,0,0-2.462.646,8.495,8.495,0,0,0-.6,6.177,6.759,6.759,0,0,0,3.372,3.791c3.95,1.95,8.164.173,12.29-.048a34.634,34.634,0,0,1,3.73,0c1.336.071,2.933.574,3.978-.532.853-.9.586-2.265.378-3.367a11.918,11.918,0,0,0-1.094-3.092,15.359,15.359,0,0,0-10.107-7.837c-4.408-.964-9.868.592-11.946,4.907a1.849,1.849,0,0,0,.645,2.463A1.818,1.818,0,0,0,141.808,68.137Z"/><path class="c" d="M208.034,24.3c-.31-.151-.647-.262-.957-.414a3.579,3.579,0,0,1-.781-.523,5.432,5.432,0,0,1-.7-.6,3.432,3.432,0,0,1-.982-3.409c.353-1.005,1.3-1.715,1.641-2.724.616-1.834-1.1-4.232-.313-6a3.633,3.633,0,0,1,3.114-2.2c1.124-.23,2.47-.328,3.06-1.311a6.085,6.085,0,0,0,.459-1.622,3.347,3.347,0,0,1,3.27-2.708,4.642,4.642,0,0,1,2.447.455,6.064,6.064,0,0,0,1.476.812c1.115.271,2.13-.618,3.083-1.256,1.2-.8,2.794-1.423,4.054-.727,1.694.934,2.008,3.643,3.746,4.493.957.468,2.129.292,3.092.747a3.43,3.43,0,0,1,1.735,3.094,5.5,5.5,0,0,1-.068.916,3.538,3.538,0,0,1-.176.923,6.008,6.008,0,0,0-.509,1.607c-.049,1.146,1.022,1.968,1.833,2.778a4.04,4.04,0,0,1,1.348,3.876c-.586,1.844-3.025,2.639-3.519,4.509-.272,1.03.13,2.145-.129,3.178a3.433,3.433,0,0,1-2.7,2.306c-1.851.394-3.76-.734-5.482-.25-1.68.8-1.926,2.847-3.435,3.841a3.432,3.432,0,0,1-3.535.3c-.917-.542-1.429-1.611-2.352-2.141-1.678-.963-3.958.214-5.681-.664a4.043,4.043,0,0,1-1.811-3.683c-.006-1.147.161-2.486-.688-3.257A2.264,2.264,0,0,0,208.034,24.3Z"/><path class="c" d="M208.943,22.74c-1.145-.507-3.308-1.533-2.465-3.111a22.042,22.042,0,0,0,1.378-2.2,5.128,5.128,0,0,0,.245-2.678c-.161-1.141-1.141-3.055-.123-4.016.984-.929,2.947-.669,4.15-1.293a3.822,3.822,0,0,0,1.629-1.607c.441-.831.351-1.893.912-2.655.925-1.255,2.544-.412,3.575.166,1.951,1.093,3.673.249,5.355-.883.567-.382,1.48-1.06,2.215-.891.582.135.887.812,1.164,1.282.78,1.323,1.519,2.686,2.98,3.355,1.445.662,3.61.107,3.72,2.2a10.524,10.524,0,0,1-.657,2.76,3.829,3.829,0,0,0,.54,2.834c.675,1.1,3.136,2.5,2.61,4.028-.19.549-.8.974-1.214,1.345a9.643,9.643,0,0,0-1.674,1.8,4.785,4.785,0,0,0-.769,2.234c-.07.775.292,1.9-.111,2.589-.895,1.529-3.5.472-4.807.362a4.7,4.7,0,0,0-4.5,2.288c-.784,1.121-1.983,3.326-3.528,1.793a8.408,8.408,0,0,0-2.226-1.9,6.332,6.332,0,0,0-3.038-.475c-.74.033-1.8.293-2.463-.116a2.314,2.314,0,0,1-.773-1.878c-.116-2.132.022-4.144-2.128-5.331-2.03-1.12-3.848,1.988-1.817,3.109.344.19.291.157.34.635s-.012.95,0,1.42a7.374,7.374,0,0,0,.743,3.2,5.1,5.1,0,0,0,4.98,2.63c.807-.023,1.911-.315,2.66.076.908.475,1.44,1.6,2.352,2.141a5.306,5.306,0,0,0,5.985-.777,9.639,9.639,0,0,0,1.667-2.161c.6-.939.9-1.17,2.047-1,2.163.321,4.2.7,6.127-.644A4.838,4.838,0,0,0,235.89,29c.4-1.169-.069-2.368.233-3.5.175-.657.9-1.143,1.38-1.575a8.184,8.184,0,0,0,1.715-1.955c1.211-2.14.413-4.582-1.116-6.318-.409-.464-1.491-1.189-1.577-1.729-.066-.41.469-1.221.563-1.649a7.943,7.943,0,0,0,.181-2.033,5.136,5.136,0,0,0-3.418-4.8c-.809-.256-1.941-.093-2.622-.636a7.4,7.4,0,0,1-1.3-2.025C228.812.951,227.192-.263,224.953.049a7.51,7.51,0,0,0-3.011,1.2,13.278,13.278,0,0,1-1.31.876c-.5.244-.537.138-1-.158a6.428,6.428,0,0,0-5.991-.489,5.239,5.239,0,0,0-2.08,1.89,6.116,6.116,0,0,0-.622,1.328c-.136.4-.129,1.211-.37,1.508-.383.472-2.009.471-2.615.636a5.637,5.637,0,0,0-2.559,1.4c-1.823,1.84-1.489,4.081-.97,6.368a2.63,2.63,0,0,1-.648,2.62,5.087,5.087,0,0,0-1.1,3.214c.093,2.632,2.229,4.426,4.447,5.408a1.86,1.86,0,0,0,2.463-.646A1.813,1.813,0,0,0,208.943,22.74Z"/><path class="g" d="M228.453,15.535c-1.442.37-2.919.748-3.8.975a.316.316,0,0,0-.2.462c.636,1.106,2.707,1.727,4.677,1.2,1.981-.491,3.491-2.039,3.511-3.315a.315.315,0,0,0-.4-.308C231.368,14.773,229.894,15.158,228.453,15.535Z"/><path class="g" d="M215.015,15.535l3.8.975a.316.316,0,0,1,.2.462c-.636,1.106-2.708,1.727-4.678,1.2-1.98-.491-3.49-2.039-3.51-3.315a.315.315,0,0,1,.4-.308C212.1,14.773,213.574,15.158,215.015,15.535Z"/></svg>